<svg xmlns="http://www.w3.org/2000/svg" viewBox="100 370 470 170">
<g transform="matrix(1.3333333,0,0,-1.3333333,0,666.66667)">
<g transform="scale(0.1)">
<path
         id="path48"
         style="fill:#000;fill-opacity:1;fill-rule:nonzero;stroke:none"
         d="m 3747.45,1652.66 c 2.1,0.7 4.21,1.4 5.61,1.4 4.2,1.4 8.4,1.4 12.6,1.4 6.31,0 12.61,-0.69 18.92,-2.1 8.4,-2.09 16.11,-5.6 23.81,-9.8 10.51,-5.61 18.91,-12.61 28.02,-19.62 10.5,-9.8 20.31,-20.31 29.42,-30.81 11.2,-12.61 22.41,-25.22 32.92,-37.83 11.9,-14.01 23.81,-28.01 36.42,-42.02 14.01,-15.41 28.01,-29.42 42.72,-44.13 16.11,-15.41 33.62,-28.71 50.43,-42.72 17.52,-14.02 37.82,-25.22 56.74,-37.13 20.31,-10.5 41.32,-18.21 63.04,-23.81 20.31,-6.3 41.32,-8.4 63.03,-7.7 19.62,0.69 38.53,4.9 57.44,11.2 16.81,5.6 31.52,14.71 45.53,25.22 12.6,9.1 22.41,19.61 31.51,32.22 7.01,11.2 11.21,23.11 13.31,36.42 2.1,11.91 0,23.81 -3.5,35.02 -3.5,13.31 -11.21,23.81 -21.01,32.92 -11.21,9.1 -23.82,16.1 -37.12,21.71 -14.71,6.3 -30.12,9.81 -45.53,12.61 -16.81,2.8 -34.32,2.8 -51.83,2.8 -19.61,-0.7 -39.23,-2.8 -58.84,-6.3 -21.71,-3.5 -43.43,-7.71 -65.14,-13.31 -23.81,-4.91 -46.93,-11.21 -70.74,-17.51 -25.21,-7.01 -50.43,-13.31 -76.35,-19.61 -27.31,-7 -55.33,-13.31 -82.65,-18.91 -30.12,-6.31 -59.53,-11.91 -89.65,-17.51 -32.22,-5.61 -64.44,-10.51 -96.66,-14.72 -34.32,-4.2 -67.94,-7.7 -102.26,-10.5 -34.32,-2.11 -68.64,-3.5 -102.96,-4.2 -32.22,-0.7 -65.14,2.8 -98.06,5.6 -28.72,2.1 -58.14,6.31 -86.85,11.21 -23.82,4.9 -47.63,11.9 -70.75,20.31 -18.21,6.3 -35.02,15.41 -51.83,25.22 -11.21,7.7 -21.71,17.5 -30.12,28.01 -5.6,7.7 -9.8,16.81 -11.9,26.62 -1.4,7 -0.71,14.71 0.7,21.71 1.4,7.01 4.9,13.31 9.8,18.91 4.9,6.31 11.21,10.51 18.21,14.71 9.11,4.21 18.21,7.71 28.02,9.81 11.91,2.1 24.51,2.8 37.12,3.5 14.71,0 30.12,-1.4 44.83,-2.8 18.21,-2.1 35.72,-5.61 53.93,-9.11 20.31,-4.2 40.63,-9.8 60.94,-15.41 22.41,-7 44.13,-15.41 66.54,-23.81 23.12,-9.81 46.23,-21.02 68.64,-32.22 23.12,-11.91 45.53,-23.82 67.24,-36.42 20.31,-11.91 39.22,-25.92 57.44,-40.63 15.4,-11.9 28.01,-25.91 40.62,-40.62 8.41,-11.21 15.41,-23.12 20.31,-36.42 2.81,-8.41 4.2,-16.81 2.1,-25.22 -2.1,-7 -6.3,-11.91 -11.2,-17.51 -9.11,-8.41 -20.32,-14.71 -31.52,-20.31 -16.11,-7.7 -33.62,-13.31 -51.83,-18.91 -23.12,-6.31 -46.23,-11.21 -69.35,-16.81 -29.41,-4.91 -58.13,-7.71 -87.55,-9.81 -32.92,-2.8 -66.54,-4.2 -99.46,-4.2 -35.02,-1.4 -70.04,2.8 -105.06,6.3 -34.32,3.5 -68.64,9.1 -102.96,15.41 -32.22,7 -64.44,14.01 -95.96,22.41 -28.72,7.01 -56.74,17.51 -84.75,28.02 -24.52,8.41 -47.63,18.21 -70.04,30.82 -18.92,9.81 -36.43,23.11 -53.24,36.42 -13.3,11.91 -25.21,26.62 -35.72,41.33 -9.1,13.31 -14.71,28.01 -18.91,42.73 -3.5,13.3 -2.8,27.31 -0.7,40.62 2.8,12.61 9.1,22.41 16.81,32.22 6.3,8.4 15.41,13.3 25.22,17.5 9.8,2.81 19.61,2.81 29.41,1.41 11.21,-2.11 20.31,-7.71 28.72,-13.31 9.81,-7.7 17.51,-17.51 23.11,-28.02 7.71,-12.6 10.51,-26.61 12.61,-41.32 2.1,-14.71 1.4,-30.12 -0.7,-45.53 -2.8,-15.41 -8.4,-30.82 -16.81,-44.82 -9.1,-14.72 -21.01,-28.03 -32.92,-40.63 -16.11,-14.71 -33.62,-25.92 -52.53,-35.72 -22.41,-11.91 -46.23,-18.21 -70.74,-23.12 -26.62,-4.9 -53.93,-3.5 -81.25,0.71 -30.12,4.2 -58.14,15.4 -85.45,27.31 -28.72,14.01 -53.94,31.52 -78.45,51.83 -22.41,18.21 -39.23,42.03 -51.83,67.94 -6.31,15.41 -15.41,29.42 -18.21,46.23 -0.71,4.2 -0.71,7.7 -0.71,11.91 h -2.1 v 0 c -5.6,-23.12 -9.1,-45.53 0,-67.94 12.61,-30.12 30.12,-56.74 52.53,-81.25 23.82,-24.52 50.44,-46.93 81.95,-62.34 30.82,-16.11 62.34,-28.02 95.96,-34.32 32.22,-4.91 64.44,-6.3 95.96,0 28.02,5.6 56.04,14.01 81.25,28.72 21.71,11.91 42.02,25.91 59.54,44.12 15.41,15.41 29.41,32.23 37.82,52.53 7,18.22 13.31,36.43 14.01,56.04 1.4,18.21 1.4,36.42 -3.51,53.93 -4.2,16.11 -10.5,32.22 -18.91,46.93 -7.7,12.61 -16.8,24.51 -28.71,32.92 -11.21,8.4 -23.82,14.01 -37.82,16.81 -13.31,2.1 -26.62,1.4 -39.23,-2.8 -13.31,-5.61 -24.51,-13.31 -33.62,-23.82 -9.1,-12.61 -16.11,-25.91 -18.91,-40.62 -3.5,-16.11 -4.21,-32.22 -0.7,-48.33 4.2,-18.21 10.51,-35.02 20.31,-50.43 11.21,-16.81 24.52,-32.22 39.93,-45.53 17.5,-14.71 35.72,-28.01 55.33,-39.92 23.81,-12.61 46.92,-25.22 71.44,-35.72 28.72,-11.91 57.44,-21.71 86.86,-30.82 32.21,-10.51 64.43,-19.61 97.35,-25.22 35.02,-7 70.04,-14.01 105.77,-18.91 35.72,-4.9 71.44,-7.71 107.16,-10.5 35.02,-2.11 69.34,-4.21 103.66,-2.81 30.82,2.1 61.64,4.2 92.46,9.1 25.92,2.81 51.13,7.71 76.35,16.12 20.31,5.6 40.62,12.61 59.53,22.41 16.11,7.71 32.22,17.51 44.83,30.82 11.21,12.61 20.31,27.32 22.41,44.83 0.7,16.81 -0.7,32.91 -8.4,48.33 -8.41,16.11 -18.91,31.51 -31.52,44.82 -15.41,15.41 -32.22,28.72 -49.73,41.33 -20.31,14.01 -40.62,27.31 -62.34,39.92 -22.41,13.31 -45.53,25.92 -69.34,37.13 -23.82,10.5 -48.33,20.31 -72.85,29.42 -22.41,8.4 -45.52,16.8 -68.64,23.11 -21.01,6.3 -42.02,11.21 -63.04,15.41 -18.91,3.5 -37.12,7 -56.03,9.1 -16.11,1.4 -32.22,2.81 -48.33,2.81 -14.01,-0.71 -28.02,-1.41 -41.32,-4.21 -11.91,-2.8 -23.82,-5.6 -34.32,-11.9 -9.81,-5.61 -19.62,-11.91 -26.62,-20.32 -7.01,-8.4 -12.61,-17.51 -15.41,-28.02 -2.8,-11.2 -4.2,-23.11 -1.4,-34.32 2.8,-13.3 8.41,-25.91 16.81,-36.42 10.51,-13.31 21.71,-25.91 36.42,-35.02 18.21,-11.91 37.13,-21.71 56.73,-29.42 23.82,-9.1 48.34,-17.51 73.55,-23.81 29.42,-7.7 59.54,-14.01 89.65,-18.92 33.63,-4.9 67.25,-9.1 101.57,-11.9 35.72,-2.1 71.44,-2.8 107.16,-1.4 35.02,2.1 70.04,4.2 105.07,7.7 33.61,4.21 66.54,9.11 99.45,14.71 30.82,5.61 61.64,11.21 91.76,18.21 28.02,6.31 56.74,11.91 84.75,19.61 25.92,6.31 51.83,13.31 77.05,20.32 23.11,7 46.23,13.31 68.64,19.61 21.01,4.91 41.32,9.8 61.64,14.01 18.21,2.8 35.72,6.3 53.23,8.4 15.41,2.1 30.12,4.21 44.82,3.5 13.31,0 25.92,-1.4 38.53,-4.2 10.51,-2.8 21.01,-5.6 30.12,-12.6 7,-4.91 14.71,-10.51 18.91,-18.22 4.2,-7.7 7,-16.11 6.3,-25.21 -0.7,-10.51 -2.8,-20.31 -9.1,-29.41 -7.71,-10.52 -16.81,-20.32 -27.32,-28.03 -13.31,-9.8 -26.61,-17.51 -41.32,-23.11 -17.51,-5.6 -35.03,-9.81 -53.24,-9.81 -19.61,-0.7 -39.22,0.71 -58.13,5.61 -21.01,5.6 -40.62,12.6 -59.54,23.11 -18.91,9.8 -37.12,22.41 -55.33,35.72 -17.51,11.91 -33.62,25.92 -49.73,40.63 -14.71,14.01 -28.72,28.02 -42.73,42.73 -12.6,13.3 -25.21,26.61 -37.82,40.62 -11.2,12.61 -22.41,25.21 -33.62,37.12 -10.51,9.81 -20.31,21.01 -31.52,30.12 -9.81,7.7 -18.91,14.71 -29.42,20.31 -8.4,4.21 -16.8,8.4 -26.61,10.51 -6.31,2.1 -13.31,2.8 -21.02,2.8 -4.2,0 -9.1,0 -14,-1.4 -2.81,-0.7 -5.61,-2.1 -8.41,-3.51 l 4.9,-6.3 v 0" />
<path
         id="path50"
         style="fill:#000;fill-opacity:1;fill-rule:nonzero;stroke:none"
         d="m 1252.55,1652.66 c -2.1,0.7 -4.21,1.4 -6.31,1.4 -3.5,1.4 -7.7,1.4 -11.9,1.4 -6.31,0 -12.61,-0.69 -18.91,-2.1 -8.41,-2.09 -16.12,-5.6 -23.82,-9.8 -10.51,-5.61 -19.61,-12.61 -28.02,-19.62 -10.5,-9.8 -20.31,-20.31 -29.41,-30.81 -11.21,-12.61 -22.42,-25.22 -32.93,-37.83 -11.9,-14.01 -24.51,-28.01 -36.42,-42.02 -14.01,-15.41 -28.01,-29.42 -42.72,-44.13 -16.11,-15.41 -33.622,-28.71 -50.434,-42.72 -17.508,-14.02 -37.821,-25.22 -57.434,-37.13 -19.613,-10.5 -40.625,-18.21 -62.34,-23.81 -20.308,-6.3 -41.324,-8.4 -63.035,-7.7 -19.613,0.69 -38.523,4.9 -57.437,11.2 -16.809,5.6 -31.52,14.71 -46.227,25.22 -11.906,9.1 -22.414,19.61 -30.816,32.22 -7.008,11.2 -11.91,23.11 -13.309,36.42 -2.101,11.91 0,23.81 3.5,35.02 3.504,13.31 11.207,23.81 21.012,32.92 11.207,9.1 23.816,16.1 37.125,21.71 14.707,6.3 29.418,9.81 45.527,12.61 16.809,2.8 34.321,2.8 51.832,2.8 19.61,-0.7 39.223,-2.8 58.832,-6.3 21.715,-3.5 43.43,-7.71 65.141,-13.31 23.113,-4.91 46.93,-11.21 70.742,-17.51 25.221,-7.01 50.431,-13.31 75.651,-19.61 28.01,-7 55.33,-13.31 83.35,-18.91 30.12,-6.31 59.53,-11.91 89.65,-17.51 32.22,-5.61 64.44,-10.51 96.66,-14.72 33.62,-4.2 67.94,-7.7 102.26,-10.5 33.62,-2.11 67.94,-3.5 102.26,-4.2 32.92,-0.7 65.84,2.8 98.76,5.6 28.72,2.1 58.14,6.31 86.85,11.21 23.82,4.9 47.63,11.9 70.05,20.31 18.21,6.3 35.72,15.41 51.83,25.22 11.91,7.7 22.41,17.5 30.82,28.01 5.6,7.7 9.8,16.81 11.91,26.62 1.39,7 0.7,14.71 -0.71,21.71 -1.4,7.01 -5.6,13.31 -9.8,18.91 -4.9,6.31 -11.91,10.51 -18.91,14.71 -8.41,4.21 -17.51,7.71 -27.32,9.81 -11.91,2.1 -24.51,2.8 -37.12,3.5 -14.71,0 -30.12,-1.4 -44.83,-2.8 -18.21,-2.1 -36.42,-5.61 -53.93,-9.11 -20.31,-4.2 -40.63,-9.8 -60.94,-15.41 -22.41,-7 -44.13,-15.41 -66.54,-23.81 -23.11,-9.81 -46.23,-21.02 -68.64,-32.22 -23.12,-11.91 -45.53,-23.82 -67.24,-36.42 -20.31,-11.91 -39.22,-25.92 -57.43,-40.63 -15.41,-11.9 -28.72,-25.91 -40.63,-40.62 -9.1,-11.21 -15.41,-23.12 -21.01,-36.42 -2.1,-8.41 -3.5,-16.81 -2.1,-25.22 2.1,-7 7,-11.91 11.9,-17.51 9.11,-8.41 20.32,-14.71 31.52,-20.31 16.11,-7.7 33.62,-13.31 51.83,-18.91 23.12,-6.31 46.23,-11.21 69.35,-16.81 28.71,-4.91 58.13,-7.71 87.55,-9.81 32.92,-2.8 66.54,-4.2 99.46,-4.2 35.02,-1.4 70.04,2.8 105.06,6.3 34.32,3.5 68.64,9.1 102.96,15.41 32.22,7 64.44,14.01 95.96,22.41 28.72,7.01 56.74,17.51 84.75,28.02 24.52,8.41 47.63,18.21 70.04,30.82 18.92,9.81 36.43,23.11 52.54,36.42 14.01,11.91 25.91,26.62 36.42,41.33 9.11,13.31 14.71,28.01 18.91,42.73 3.5,13.3 2.8,27.31 0,40.62 -2.1,12.61 -8.4,22.41 -16.11,32.22 -6.3,8.4 -15.41,13.3 -25.21,17.5 -9.81,2.81 -19.62,2.81 -29.42,1.41 -11.21,-2.11 -20.31,-7.71 -29.42,-13.31 -9.81,-7.7 -16.81,-17.51 -22.41,-28.02 -7.71,-12.6 -10.51,-26.61 -13.31,-41.32 -2.1,-14.71 -1.4,-30.12 0.7,-45.53 3.5,-15.41 9.1,-30.82 17.51,-44.82 9.11,-14.72 20.31,-28.03 32.92,-40.63 15.41,-14.71 33.62,-25.92 52.53,-35.72 22.42,-11.91 46.23,-18.21 70.04,-23.12 27.32,-4.9 54.63,-3.5 81.95,0.71 30.12,4.2 58.14,15.4 85.45,27.31 28.02,14.01 53.94,31.52 77.75,51.83 23.11,18.21 39.93,42.03 52.53,67.94 5.61,15.41 15.41,29.42 18.21,46.23 0.71,4.2 0,7.7 0.71,11.91 h 2.1 v 0 c 5.6,-23.12 9.1,-45.53 0,-67.94 -12.61,-30.12 -30.12,-56.74 -52.53,-81.25 -24.52,-24.52 -50.43,-46.93 -82.66,-62.34 -30.11,-16.11 -61.63,-28.02 -95.95,-34.32 -31.52,-4.91 -63.74,-6.3 -95.26,0 -28.02,5.6 -56.04,14.01 -81.25,28.72 -21.71,11.91 -42.02,25.91 -60.24,44.12 -14.71,15.41 -28.71,32.23 -37.12,52.53 -7,18.22 -13.31,36.43 -14.01,56.04 -1.4,18.21 -1.4,36.42 3.51,53.93 4.2,16.11 10.5,32.22 18.21,46.93 8.4,12.61 17.51,24.51 29.41,32.92 11.21,8.4 23.82,14.01 37.13,16.81 13.3,2.1 26.61,1.4 39.92,-2.8 12.61,-5.61 24.52,-13.31 33.62,-23.82 9.11,-12.61 16.11,-25.91 18.91,-40.62 3.5,-16.11 4.21,-32.22 0.7,-48.33 -4.2,-18.21 -10.5,-35.02 -20.31,-50.43 -11.21,-16.81 -24.52,-32.22 -39.92,-45.53 -17.51,-14.71 -35.73,-28.01 -56.04,-39.92 -23.11,-12.61 -46.93,-25.22 -70.74,-35.72 -28.72,-11.91 -57.44,-21.71 -86.86,-30.82 -32.21,-10.51 -64.43,-19.61 -97.35,-25.22 -35.02,-7 -70.04,-14.01 -105.77,-18.91 -35.72,-4.9 -71.44,-7.71 -107.86,-10.5 -34.32,-2.11 -68.64,-4.21 -102.96,-2.81 -30.82,2.1 -61.64,4.2 -92.46,9.1 -25.92,2.81 -51.13,7.71 -76.35,16.12 -20.31,5.6 -40.62,12.61 -59.53,22.41 -16.11,7.71 -32.22,17.51 -44.83,30.82 -11.21,12.61 -20.31,27.32 -22.41,44.83 -1.4,16.81 0.7,32.91 8.4,48.33 8.41,16.11 18.91,31.51 31.52,44.82 15.41,15.41 31.52,28.72 49.73,41.33 20.32,14.01 40.62,27.31 62.34,39.92 22.41,13.31 45.53,25.92 69.34,37.13 23.82,10.5 48.33,20.31 72.85,29.42 22.41,8.4 45.52,16.8 68.64,23.11 21.01,6.3 42.02,11.21 63.04,15.41 18.91,3.5 37.12,7 56.03,9.1 16.11,1.4 32.22,2.81 48.33,2.81 14.01,-0.71 28.02,-1.41 41.32,-4.21 11.91,-2.8 23.82,-5.6 34.32,-11.9 9.81,-5.61 19.62,-11.91 26.62,-20.32 7.01,-8.4 12.61,-17.51 15.41,-28.02 2.8,-11.2 3.5,-23.11 1.4,-34.32 -3.5,-13.3 -8.41,-25.91 -16.81,-36.42 -10.51,-13.31 -22.41,-25.91 -36.42,-35.02 -18.21,-11.91 -37.13,-21.71 -56.73,-29.42 -23.82,-9.1 -48.34,-17.51 -73.55,-23.81 -29.42,-7.7 -59.54,-14.01 -89.65,-18.92 -33.63,-4.9 -67.25,-9.1 -101.57,-11.9 -35.72,-2.1 -71.44,-2.8 -107.16,-1.4 -35.02,2.1 -70.04,4.2 -105.06,7.7 -33.62,4.21 -66.55,9.11 -100.16,14.71 -30.12,5.61 -60.94,11.21 -91.06,18.21 -28.02,6.31 -56.74,11.91 -84.75,19.61 -25.92,6.31 -51.83,13.31 -77.049,20.32 -23.113,7 -46.226,13.31 -68.64,19.61 -21.012,4.91 -41.325,9.8 -61.637,14.01 -18.211,2.8 -35.723,6.3 -53.234,8.4 -15.407,2.1 -30.118,4.21 -44.825,3.5 -13.308,0 -25.918,-1.4 -38.523,-4.2 -10.508,-2.8 -21.016,-5.6 -30.121,-12.6 -7.004,-4.91 -14.707,-10.51 -18.91,-18.22 -4.203,-7.7 -7.004,-16.11 -7.004,-25.21 1.402,-10.51 3.504,-20.31 9.804,-29.41 7.707,-10.52 16.813,-20.32 27.317,-28.03 12.609,-9.8 26.617,-17.51 41.328,-23.11 17.508,-5.6 35.019,-9.81 52.531,-9.81 20.313,-0.7 39.922,0.71 58.832,5.61 21.016,5.6 40.625,12.6 58.836,23.11 19.613,9.8 37.824,22.41 55.336,35.72 18.211,11.91 34.32,25.92 50.429,40.63 14.71,14.01 28.72,28.02 42.73,42.73 12.6,13.3 25.21,26.61 37.12,40.62 11.9,12.61 23.11,25.21 34.32,37.12 10.51,9.81 20.31,21.01 31.52,30.12 9.1,7.7 18.91,14.71 29.42,20.31 8.4,4.21 16.81,8.4 25.91,10.51 7.01,2.1 14.01,2.8 21.02,2.8 4.9,0 9.8,0 14.7,-1.4 2.81,-0.7 5.61,-2.1 8.41,-3.51 l -4.9,-6.3 v 0" />
</g></g></svg>