<svg xmlns="http://www.w3.org/2000/svg" viewBox="0 1250 1600 420"><g transform="matrix(1.3333333,0,0,-1.3333333,0,1858.6667)"><g transform="scale(0.1)"><path style="fill:#000;fill-rule:nonzero;stroke:none" d="m 1965.86,2405.9 c 131.87,-137 302.63,-237.4 485.28,-289.6 195.42,-55.9 403.87,-52.2 602,-12.8 191.84,38.1 376.13,109.6 549.57,199.1 178.24,92.1 345.61,203 508.65,319.4 168.73,120.6 333.62,246.5 504.64,363.8 131.46,90.2 267.11,177.3 410.84,246.7 31.82,15.4 63.65,30.8 95.47,46.1 84.39,40.8 174.63,73 263.59,102.3 192.57,63.3 392.13,104.4 593.96,123 206.91,19.1 416,15 621.98,-12.4 133.37,-17.8 266.08,-44.6 395.09,-82.9 88.04,-26.1 176.47,-53.8 260.9,-90.2 75.64,-32.6 150.66,-65.5 223.92,-103.3 181.85,-93.8 355.23,-203 528.7,-311.3 173.1,-108 346.5,-216.4 528.32,-309.4 174.83,-89.4 358.73,-165.3 551.97,-203.8 196.62,-39.1 407.84,-42.1 600.98,16.6 179.03,54.5 351.98,161.2 458.28,318.1 40.4,59.7 71.5,126 87.9,196.4 22.6,97.2 14.8,194.7 -24.3,286.8 -67.5,159.5 -224.55,300.2 -403.3,309.7 -41.39,2.2 -82.48,-3.4 -121.42,-17.7 -20.17,-7.4 -39.2,-17.8 -56.57,-30.4 -5.38,-3.9 -34.16,-26.3 -19.87,-30.5 5.89,-1.7 16.12,2.8 21.57,4.4 11.75,3.3 23.43,7 35.32,9.8 21.76,5 43.56,8.1 65.84,9.5 40.74,2.5 82.74,-4.3 121.46,-16.8 169.37,-54.5 313.57,-226.4 318.67,-406.8 4.8,-170.7 -106.2,-326.8 -237.39,-425.3 -77.08,-57.8 -164.58,-101.5 -256.3,-130.8 -95.07,-30.4 -193,-42 -292.42,-45.2 -201.98,-6.4 -404.42,45.3 -590.66,119.8 -183.25,73.3 -356.15,170.1 -524.97,271.8 -168.01,101.1 -332.5,207.9 -501.26,307.8 -121.33,71.9 -245.12,144.5 -374.88,200.4 -35.58,15.3 -71.16,30.6 -106.74,45.9 -47.86,20.6 -97.27,37.3 -146.25,55 -70.08,25.3 -143.19,47.1 -215.76,64.1 -188.44,44.2 -378.2,74.5 -571.83,82.6 -208.12,8.7 -417.26,-5.4 -622.27,-42.3 -197.48,-35.6 -391.32,-93.1 -576.18,-171.2 -77.56,-32.7 -154.35,-68.9 -228.47,-109 -177.3,-95.7 -343.9,-209.1 -507.12,-327 -166.1,-119.9 -328.97,-244.4 -498.77,-359.1 -164.28,-111 -335.81,-212.6 -518.56,-290.3 -183.72,-78 -379.63,-132.4 -579.69,-142 -156.8,-7.6 -314.55,14.6 -460.3,74.1 -175.59,71.6 -334.34,190.2 -443.38,346.4 -55.01,78.8 -95.96,164.7 -123.79,256.7 -6.75,22.2 -12.16,45 -17.17,67.7 -4.05,18.4 -6.63,38.6 -13.55,56.1 -4.71,12 -9.17,9.8 -12.36,-1.5 -5.13,-18.3 -5.48,-37.9 -5.64,-56.7 -1.57,-181.5 93.52,-353.7 216.27,-481.8 71.32,-74.1 -35.11,36.7 0,0"/><path style="fill:#000;fill-rule:nonzero;stroke:none" d="m 3736.74,3405.9 c -1.67,-6.4 -31.71,-1 -36.87,-0.8 -19.64,0.9 -38.88,0.6 -58.45,-0.8 -37.67,-2.7 -74.36,-9.4 -110.2,-21.6 -75.7,-25.7 -143.63,-72.8 -197.6,-131.5 -51.91,-56.4 -92.66,-123.2 -115.64,-196.5 -23.89,-76.3 -25.5,-155.4 -10,-233.5 31.69,-159.6 134.09,-298.7 262.65,-395.3 123.41,-92.7 269.38,-144.2 422.09,-162 170.82,-19.9 344.24,0.2 510.76,40.2 168.1,40.4 332.39,100.2 489.23,172.7 319.04,147.4 611.29,344 885.4,562.9 266.88,213.2 514.92,453 806.5,633.4 143.29,88.7 296.8,162.1 459.63,206.8 163.77,45 335.65,62.07 505,48.5 312,-24.9 609.95,-158.1 817.5,-395.5 205.22,-234.7 318.53,-563.9 253.74,-874.2 -65.12,-311.7 -307.17,-586.4 -613.73,-678.6 -157.04,-47.3 -322.63,-40.6 -471.87,29 -126.43,59.1 -243.38,161.7 -292.8,295 -24.58,66.3 -28.75,133.3 -18.15,202.8 -10.35,-73 -3.92,-143.9 24.89,-212.4 28.78,-68.4 76.26,-128.2 131.73,-177 112.34,-98.8 262.49,-157.6 412.33,-157.3 330.01,0.5 624.82,240.2 751.24,535 129.7,302.4 61.36,653.9 -124.82,917.4 -88.33,125 -202.54,232 -334.24,310.2 -135.65,80.5 -287.88,131.2 -443.78,153.6 -171.29,24.7 -347.11,15.7 -515.64,-23 -159.36,-36.7 -310.3,-101.7 -451.37,-183.7 -301.65,-175.5 -553.82,-421.1 -822.3,-641 -273.65,-224.2 -566.55,-429.5 -886.59,-582.2 -156.26,-74.6 -318.58,-137.1 -485.69,-182.6 -167.8,-45.8 -343.19,-72.4 -517.37,-62.9 -167.26,9.1 -331.68,53.5 -473.39,144.4 -137.28,88.1 -251.7,220 -306.58,374.6 -48.22,135.9 -47.09,282.2 15.73,413 66.34,138 193.96,253.5 345.16,288.3 34.64,8 71.72,12 107.21,8.5 9.27,-0.8 89.47,-11.7 86.29,-23.9"/><path style="fill:#000;fill-rule:nonzero;stroke:none" d="m 10007.9,3415.2 c 8.7,9.5 55.4,-40.9 61,-46.7 25.1,-26.5 46.8,-55.8 64.1,-88 39.6,-73.8 52.3,-157.9 37.6,-240.4 -15.3,-86.4 -57.8,-165.4 -110.7,-234.6 -50.9,-66.7 -112.29,-124.9 -184.5,-168.1 -157.31,-93.9 -342.84,-120.8 -523,-127 -90.87,-3.1 -183.83,9.5 -272.99,26.1 -91.71,17.1 -182.13,41.4 -271.29,68.7 -176.69,54.1 -348.8,121.6 -524.25,179.4 -179.93,59.3 -364.74,105.4 -548.79,150 -183.89,44.6 -369.51,83.3 -557.66,104.7 -181.26,20.7 -364.72,25.6 -546,2.5 -174.56,-22.2 -347.48,-68.1 -506.56,-144.1 -80.23,-38.3 -155,-83.7 -227.33,-135.3 -68.43,-48.9 -128.08,-108.1 -184.42,-170.1 -21.09,-23.3 -39.5,-49.2 -58.76,-74 19.93,26.5 39.03,53.8 60.87,78.7 28.51,32.4 57.69,63.4 88.33,93.9 61.86,61.5 135.57,116.1 210.56,160.5 154.09,91.3 322.5,155.4 497.81,191.8 184.1,38.3 371.95,47.4 559.38,36.1 192.07,-11.6 382.3,-43 570.32,-83.1 140.52,-29.9 279.88,-64.8 419.22,-99.7 179.43,-44.9 353.62,-105.4 528.35,-165.6 177.51,-61.1 357.68,-121.2 543.73,-150.2 181.93,-28.4 371.38,-24.7 549.2,26.5 80.43,23.2 158.65,57.6 225.69,108.4 71.21,53.8 132.19,125.7 175.29,203.7 39,70.6 63.5,150.3 56,231.5 -7,75.6 -41.6,141.4 -85.7,201.8 -10.5,14.4 -22.3,27.9 -33.9,41.5 -2.5,3 -16.2,16.1 -11.6,21.1"/></g></g></svg>
