<svg xmlns="http://www.w3.org/2000/svg" viewBox="0 720 1600 480"><g transform="matrix(1.3333333,0,0,-1.3333333,0,1858.6667)"><g transform="scale(0.1)"><path style="fill:#000;fill-rule:nonzero;stroke:none" d="m 2511.46,6095.94 c -67.29,-111.91 -187.76,-184.79 -312.25,-216.09 -138.72,-34.88 -283.79,-15.81 -409.71,51.54 -186.91,99.95 -311.47,295.67 -360.7,497.89 -33.98,139.61 -39.56,288.28 -5.32,428.55 20.93,85.72 55.5,166.87 101.88,242.03 142.03,230.15 372.77,391.8 624.15,483.61 277.81,101.46 575.2,117.56 866.33,74.98 287.2,-42.01 563.44,-139.33 825.18,-262.83 260,-122.67 505.95,-272 747.26,-427.65 247.36,-159.56 490.67,-325.53 742.91,-477.41 241.21,-145.23 491.04,-278.13 755.2,-376.81 275.61,-102.96 569.39,-167.07 864.18,-171.48 287.35,-4.29 574.46,51.91 830.7,184.5 254.17,131.51 467.93,325.3 675.35,519.46 209.16,195.81 418.49,397.77 668.14,542.06 245.75,142.02 533.1,227.71 818.58,209.2 280.26,-18.16 557.26,-144.39 738.16,-362.07 88.6,-106.59 150.9,-233.54 174.9,-370.39 23.6,-134.84 13,-276.62 -33.2,-405.66 -43.9,-122.94 -121.1,-235.47 -228.1,-311.72 -111.9,-79.76 -251,-115.78 -387.6,-110.54 -134.7,5.18 -270,52.58 -370.24,144.47 -99.66,91.37 -148.31,220.07 -148.43,354.05 -0.11,138.93 51.06,280.9 144.95,384.01 39.45,43.32 85.74,77.99 136.73,106.44 11.7,6.53 26.42,12.35 36.39,21.36 10.7,9.72 -2,10.32 -11.1,10.11 -24.93,-0.58 -50.19,-8.26 -73.37,-17.08 -119.3,-45.38 -211.17,-151.38 -260.99,-266.52 -54.33,-125.56 -69.52,-268.82 -33.61,-401.63 34.62,-128.04 116.63,-235.97 226.8,-308.89 116.32,-77.01 257.17,-112.48 395.97,-109.37 140.2,3.14 280.1,45.33 394.5,127.52 109.6,78.77 192,191.17 242.9,315.57 104.9,256.42 77.3,555.96 -69.5,790.08 -148.7,237.26 -399.4,398.16 -669.1,463.07 -282.84,68.06 -582.75,25.16 -849.76,-83.4 -261.02,-106.13 -484.15,-279.13 -691.78,-466.5 -215.98,-194.91 -418.93,-406.61 -658.28,-573.8 -112.91,-78.87 -233.66,-146.78 -362.49,-196.03 -133.12,-50.89 -273.65,-81.97 -415.34,-96.17 -294.1,-29.48 -592.69,12.46 -874.93,96.41 -281.2,83.64 -546.25,212.56 -800.05,358.36 -258.08,148.27 -505.12,314.57 -754.19,477.23 -241.45,157.69 -485.44,312.18 -742.61,443.24 -257.9,131.42 -529.15,240.64 -812.78,301.62 -288.02,61.93 -588.52,74.28 -876.59,6.38 -266.19,-62.75 -522.83,-191.1 -712.92,-390.43 -91.68,-96.14 -168.57,-209.53 -217.03,-333.56 -30.55,-78.18 -48.83,-160.03 -57.17,-243.56 -23,-230.46 38.67,-470.85 171.75,-660.48 75.1,-107 178.34,-196.38 297.79,-250.14 130.48,-58.71 275.56,-73.12 414.98,-40.45 127.12,29.79 248.45,96.77 331.82,198.58 88.52,108.1 125.57,249.59 85.16,385.01 -37.12,124.43 -129.61,236.21 -249.51,288.31 -58.3,25.33 -123.99,36.34 -186.63,22.06 -7.69,-1.76 -71.75,-18.91 -67.26,-31.9 1.97,-5.71 24.68,-0.62 29.26,-0.17 14.62,1.47 29.36,2.67 44.06,2.64 130.37,-0.23 245.37,-84.76 311.43,-192.88 33.12,-54.21 54.69,-116.95 58.02,-180.59 3.59,-68.62 -17.45,-135.81 -52.89,-194.14 -36.61,-60.88 18.17,29.9 0,0"/><path style="fill:#000;fill-rule:nonzero;stroke:none" d="m 1943.45,5832.9 c -0.01,-16 -64.19,-10.77 -74.38,-10.07 -30.82,2.12 -61.42,7.19 -91.49,14.2 -62.28,14.53 -122.62,37.69 -179.05,67.75 -122.27,65.13 -228.63,157.21 -314.36,265.74 -83.32,105.48 -146.16,227.47 -185.27,356.02 -39.99,131.48 -62.37,278.93 -42.89,415.99 18.17,127.84 60.17,250.36 127.8,360.57 65.03,105.97 148.44,198.22 247.97,272.9 113.36,85.06 246.14,139.43 385.43,164 146.41,25.83 297.3,17.81 442.59,-11.28 290.62,-58.2 554.02,-196.47 807.31,-345.28 223.55,-131.33 445,-271.34 687.23,-366.44 80.27,-31.51 163.1,-58.43 247.23,-77.37 146.18,-32.92 300.21,-36.79 447.96,-12.19 260.88,43.42 517.76,189.44 613.87,447.94 95.75,257.53 7.49,574.11 -210.54,742.55 -212.99,164.55 -528.75,164.75 -752.72,21.38 -46.57,-29.81 -86.14,-65.5 -124.98,-104.56 37.84,39.25 76.43,75.43 121.92,105.84 52.17,34.87 110.31,61.98 170.12,80.71 129.43,40.55 267.49,40.91 398.1,6.06 260.94,-69.61 435,-321.73 458.44,-583.15 12.77,-142.48 -20.69,-289.69 -99.38,-409.74 -77.14,-117.67 -188.48,-206.08 -315.12,-265.68 -258.82,-121.79 -570.07,-124.44 -840.11,-39.6 -187.54,58.91 -363.52,143.28 -535.22,238.77 -257.31,143.11 -505.45,305.96 -781.38,412.21 -270.76,104.26 -572.42,158.18 -854.14,65.11 -228.91,-75.64 -422.35,-259.84 -516.17,-481.4 -27.68,-65.37 -48.27,-132.05 -59.82,-202.15 -11.77,-71.5 -12.77,-144.27 -5.54,-216.36 14.29,-142.37 56.2,-281.75 124.65,-407.51 120.53,-221.45 328.77,-406.38 574.98,-472.7 29.84,-8.03 60.05,-14.09 90.53,-19.15 6.23,-1.03 36.55,-2.38 36.43,-13.11 0,-2.55 0.06,4.86 0,0"/><path style="fill:#000;fill-rule:nonzero;stroke:none" d="m 2237.67,6345.22 c 9.84,-13.37 -47.03,-41.26 -56.57,-45.34 -29.03,-12.42 -60.56,-18.63 -92.04,-19.76 -70.58,-2.54 -141.11,19.59 -200.1,57.8 -58.72,38.03 -108.35,93.78 -132.42,160.11 -26.28,72.38 -31.45,150.01 -15.57,225.45 31.24,148.43 130.48,273.15 261.64,346.84 131.7,73.99 285.71,99.78 435.33,96.48 320.14,-7.05 619.7,-139.39 887.04,-306.91 275.05,-172.37 522.36,-383.48 785.95,-572 260.26,-186.12 537.58,-350.56 832.02,-476.58 300.07,-128.42 622.1,-214.12 949.82,-219.16 309.03,-4.76 629.28,67.05 892.17,233.59 115.18,72.97 217.11,165.29 297.34,275.71 91.01,125.25 146.82,277.77 157.3,432.23 9.68,142.73 -20.55,289.32 -99.92,409.76 -74.31,112.75 -187.74,200.6 -315.82,243.52 -147.35,49.37 -312.46,34.39 -438.61,-60.01 -114.32,-85.55 -193.05,-223.64 -199.27,-367.25 -2.71,-62.6 9.86,-121.6 34.36,-178.94 -25.85,58.45 -39.29,118.74 -36.77,182.93 2.81,71.76 23.98,141.67 57.48,204.92 69.69,131.54 197.85,232.31 346.86,253.58 283.76,40.51 558.18,-160.02 643.92,-425.54 87.27,-270.25 -0.43,-577.41 -183.62,-787.71 -200.53,-230.23 -487.54,-365.24 -783.37,-424.29 -320.31,-63.95 -651.03,-36.52 -964.64,49.06 -308.99,84.33 -601.93,220.73 -876.91,383.72 -136.74,81.05 -269.48,168.95 -398.12,262.29 -129.17,93.73 -254.87,192.13 -382.75,287.61 -252.24,188.34 -518.05,373.2 -819.85,472.18 -146.9,48.18 -303.52,76.28 -458.52,69.06 -142.8,-6.66 -289.07,-43.98 -403.58,-132.87 -112.04,-86.97 -190.73,-234.81 -176.62,-379 7.17,-73.25 36.59,-140.49 90.06,-191.66 50.65,-48.48 117.47,-80.46 187.09,-89.02 32.34,-3.98 65.08,-2.43 96.84,4.94 15.93,3.7 31.51,8.89 46.62,15.12 6.25,2.58 28.08,16.13 33.23,9.14 1.43,-1.93 -1.29,1.76 0,0"/><path style="fill:#000;fill-rule:nonzero;stroke:none" d="m 9680.88,6428.6 c 7.77,0.5 16.01,-41.11 18.12,-46.91 6.89,-18.94 14.91,-37.4 24.82,-54.98 21.84,-38.77 50.02,-73.14 84.25,-101.67 70.49,-58.75 161.25,-87.33 252.53,-83.54 199.4,8.27 372.5,146.34 466.2,316.01 98.2,177.91 119.7,393.94 64.2,588.83 -56.7,198.67 -191.1,372.36 -356.9,493.23 -171.6,125.14 -375.1,195.27 -585.32,218.47 -204.87,22.61 -414.92,2.35 -613.71,-50.71 -192.8,-51.47 -379.31,-136.09 -532.54,-265.63 -144.62,-122.27 -253.78,-283.68 -304.17,-466.95 -49.47,-179.92 -37.99,-378.36 57.35,-541.63 94.99,-162.67 263.38,-289.1 452.82,-312.3 37.14,-4.55 73.81,-4.34 111.05,-1.64 -90.37,-8.36 -178.85,3.44 -263.2,37.75 -90.18,36.69 -171.06,95.6 -236.2,167.71 -70.62,78.18 -122.88,172.58 -148.27,274.98 -22.88,92.28 -27.78,187.28 -15.14,281.52 26.15,194.91 120.08,377.06 255.75,518.3 143.66,149.56 329.18,252.94 524.38,319.18 208.52,70.75 434.27,103.4 654.24,90.34 220.47,-13.08 437.26,-74.35 623.76,-194.27 180.2,-115.8 326,-284.18 404.6,-484.13 79.1,-201.18 73.1,-434.27 -13.2,-632.07 -81.7,-187.02 -241.4,-344.93 -444.3,-391.2 -93.6,-21.37 -194.09,-16.92 -281.8,24.35 -87.53,41.18 -160.34,114.31 -191.95,206.53 -2.74,7.97 -22.68,89.2 -7.37,90.43 1.51,0.1 -2.57,-0.2 0,0"/></g></g></svg>
