<svg xmlns="http://www.w3.org/2000/svg" viewBox="80 510 510 160">
<g transform="matrix(1.3333333,0,0,-1.3333333,0,666.66667)">
<g transform="scale(0.1)">
<path
         id="path24"
         style="fill:#000;fill-opacity:1;fill-rule:nonzero;stroke:none"
         d="m 3899.69,489.305 c -9.46,-1.578 -19.7,-3.938 -29.95,-5.516 -13.4,-2.363 -26.79,-4.726 -40.98,-6.305 -13.4,-1.578 -26.8,-3.152 -40.98,-4.726 -13.4,-0.789 -27.59,-2.367 -40.98,-2.367 -14.19,-0.789 -27.59,0 -40.99,0 -13.39,0.789 -26.79,1.578 -40.19,2.367 -13.4,1.574 -26.01,2.363 -39.41,3.941 -12.6,1.578 -25.22,3.153 -37.82,4.727 -12.62,2.363 -25.23,4.73 -37.05,7.09 -12.61,3.156 -25.21,6.308 -37.04,9.461 -12.61,3.148 -24.43,7.093 -36.25,11.031 -12.61,3.945 -24.43,7.883 -36.25,12.609 -12.61,5.516 -24.44,10.25 -36.26,15.766 -11.82,5.515 -23.64,11.031 -34.68,16.547 -11.82,6.304 -23.64,12.609 -35.46,18.914 -11.03,6.304 -22.07,12.609 -33.89,19.703 -4.73,2.367 -9.46,4.734 -13.4,7.883 -8.66,-3.938 -16.55,-7.883 -24.43,-11.032 -11.03,-4.726 -22.85,-9.46 -34.68,-14.187 -11.03,-4.727 -22.85,-8.672 -34.67,-12.609 -11.04,-3.938 -22.07,-7.883 -33.1,-11.032 -11.03,-3.156 -22.07,-6.304 -33.1,-8.672 -10.25,-2.367 -20.49,-4.726 -30.74,-6.304 -9.46,-1.578 -19.7,-3.156 -29.16,-3.938 -9.46,-0.789 -18.13,-0.789 -27.59,-0.789 -7.87,0.789 -16.54,0.789 -24.43,2.36 -7.88,1.578 -14.97,3.156 -22.06,5.515 -6.31,2.367 -12.61,5.524 -18.13,9.461 -5.52,3.156 -9.46,7.094 -13.39,11.031 -3.16,4.735 -6.31,8.672 -7.89,14.188 -1.58,4.726 -3.15,10.25 -2.36,15.766 0.78,6.304 2.36,11.82 5.51,17.335 3.95,6.305 7.88,11.821 13.4,17.336 6.31,5.524 12.61,11.829 19.71,16.555 8.66,6.305 17.33,12.609 26,18.125 10.25,6.305 20.49,12.609 31.53,18.125 11.82,6.305 23.64,12.613 36.25,18.918 8.67,3.938 18.13,7.879 27.58,12.613 -6.3,3.149 -11.82,7.09 -17.33,10.239 -12.61,7.093 -24.44,14.191 -37.05,21.281 -11.82,6.305 -24.43,13.398 -37.82,18.914 -12.61,6.305 -26.01,12.609 -39.41,18.125 -13.4,5.516 -27.59,11.039 -41.77,15.766 -14.19,5.515 -28.37,9.453 -43.35,14.187 -14.97,3.938 -29.95,7.094 -44.92,9.453 -15.76,3.156 -32.31,5.516 -48.07,7.094 -16.55,1.578 -33.1,0.789 -50.44,0.789 -17.34,-0.789 -34.68,-2.367 -52.02,-3.156 -18.13,-1.571 -35.47,-4.727 -52.8,-9.453 -18.13,-3.938 -35.47,-9.461 -52.81,-14.188 -16.55,-5.516 -33.89,-10.242 -50.44,-16.547 -15.76,-5.523 -31.52,-12.609 -47.28,-18.922 -14.97,-6.304 -29.16,-14.179 -43.35,-21.273 -14.18,-7.094 -26.79,-14.977 -39.4,-22.856 -11.83,-7.882 -23.65,-15.761 -33.89,-24.429 -10.25,-7.883 -19.71,-16.555 -29.16,-25.219 -7.89,-7.883 -14.98,-17.344 -21.28,-26.008 0,-0.789 -0.79,-0.789 -0.79,-0.789 -4.73,0.789 -10.25,0.789 -15.76,1.578 1.57,2.36 3.15,4.727 4.73,7.094 7.09,10.242 14.97,18.914 23.64,27.578 9.46,9.461 18.91,18.914 29.16,26.797 11.03,9.461 22.86,18.125 34.68,26.008 13.39,8.668 26.79,16.551 40.19,24.433 14.97,7.879 29.16,14.973 44.13,22.063 15.77,7.094 31.53,14.976 48.08,21.281 16.55,6.305 33.1,13.399 50.44,19.703 17.34,5.516 35.46,11.032 53.59,15.766 18.13,4.726 36.25,8.664 54.38,13.398 18.13,3.149 36.25,6.305 54.38,7.875 18.13,1.578 35.47,2.368 53.59,2.368 17.34,0 34.68,0.789 52.02,-1.579 16.55,-2.359 33.1,-4.726 49.65,-8.664 16.55,-3.156 32.31,-7.093 47.28,-11.828 15.77,-5.515 29.95,-11.031 44.93,-16.547 14.18,-6.304 28.37,-11.82 42.55,-18.914 13.4,-6.304 26.8,-13.398 39.41,-20.492 13.4,-7.094 26.01,-14.187 37.83,-22.07 12.61,-7.879 24.43,-14.977 36.25,-22.852 2.37,-1.574 4.73,-3.152 7.1,-4.73 2.36,1.578 5.52,3.156 8.66,3.941 15.77,7.094 31.53,13.399 48.08,19.703 16.55,6.305 33.89,11.821 51.23,18.125 17.34,6.305 35.46,11.821 52.8,17.336 18.13,5.524 36.26,11.039 54.38,16.555 18.13,4.726 36.26,9.453 54.38,14.187 18.13,3.938 36.26,8.664 54.38,11.821 18.13,3.148 36.25,6.304 54.38,9.453 17.34,2.367 35.47,4.734 52.8,6.312 16.56,1.571 33.11,3.149 49.66,4.727 9.45,5.516 18.91,11.031 29.16,15.758 10.24,5.523 21.28,11.039 32.31,16.554 11.82,4.727 22.85,10.243 34.68,14.188 11.03,4.726 22.85,9.453 34.67,14.187 11.83,3.938 23.65,8.664 35.47,12.61 11.82,3.937 23.64,7.875 35.46,11.031 12.61,3.148 24.43,6.305 37.04,9.461 11.83,2.359 23.65,4.727 35.47,7.086 12.61,1.578 24.43,3.152 36.25,4.73 11.83,0.789 23.65,1.575 35.47,0.789 11.03,0 22.85,0 33.89,-0.789 11.03,-0.789 22.06,-1.578 33.1,-3.941 10.24,-1.574 20.49,-4.727 31.52,-7.875 9.46,-2.367 19.71,-7.098 28.37,-11.828 9.46,-4.727 18.13,-8.664 26.8,-14.188 8.67,-4.726 15.76,-10.242 22.86,-17.336 7.09,-6.304 14.18,-11.82 20.49,-18.914 6.3,-5.515 12.61,-12.609 17.33,-19.703 5.52,-6.304 10.25,-14.187 14.19,-21.281 4.73,-7.094 7.1,-14.969 10.25,-22.852 3.15,-7.882 4.72,-15.765 6.3,-23.648 1.58,-7.875 2.37,-16.547 2.37,-24.43 0.78,-7.883 0,-15.765 0,-23.64 -0.79,-7.883 -2.37,-15.762 -3.95,-23.649 -2.36,-7.879 -4.72,-15.754 -7.87,-22.851 -3.16,-7.879 -7.1,-15.762 -11.04,-22.856 -4.73,-7.883 -10.25,-14.976 -15.76,-22.062 -6.31,-7.094 -12.61,-14.188 -18.92,-21.282 -6.3,-7.093 -13.39,-13.398 -20.49,-20.492 -7.88,-6.304 -14.97,-13.398 -22.85,-19.703 -8.67,-6.305 -16.55,-12.609 -25.22,-18.914 -9.46,-6.305 -18.92,-11.82 -28.37,-17.344 -9.46,-6.304 -19.71,-11.82 -29.95,-16.547 -11.04,-5.515 -21.28,-10.242 -32.31,-14.976 -11.83,-4.727 -22.86,-9.453 -34.68,-13.395 -11.82,-4.73 -24.43,-8.668 -36.25,-12.613 -12.62,-3.937 -25.22,-7.09 -37.84,-10.242 -3.15,-0.789 -7.09,-1.578 -10.24,-2.367 z m -13.4,16.554 c 6.31,1.571 12.61,3.149 18.92,4.727 12.61,2.367 24.43,6.305 37.04,9.453 11.82,3.945 23.64,7.883 34.68,11.828 11.82,4.727 22.85,8.664 33.88,13.399 10.25,4.726 21.28,9.453 31.53,14.968 9.46,4.735 19.7,9.461 29.16,15.766 9.46,4.727 18.13,11.031 26.79,16.547 8.67,5.523 16.55,11.828 24.44,18.133 7.09,5.515 14.97,11.82 22.06,18.914 7.1,6.304 13.4,12.609 19.71,18.914 6.3,6.305 12.61,12.609 18.12,19.703 5.52,6.305 11.04,13.398 15.76,19.703 3.94,6.305 7.89,13.395 11.04,19.703 3.15,7.094 5.51,14.184 7.09,21.278 2.37,6.304 3.15,13.398 3.94,21.277 0.79,7.09 1.58,14.183 1.58,21.277 0,7.883 -0.79,14.977 -2.37,22.86 -0.78,7.093 -2.36,14.968 -3.94,22.062 -2.36,7.094 -5.51,14.188 -8.67,21.281 -3.94,7.094 -7.88,14.188 -12.6,20.493 -5.52,6.304 -10.25,13.398 -16.56,18.914 -6.3,6.304 -12.6,12.609 -20.49,16.554 -7.88,4.727 -15.76,8.664 -23.64,13.399 -7.88,4.726 -16.55,8.664 -25.22,11.82 -9.46,3.148 -18.13,5.516 -27.58,7.883 -9.46,2.359 -19.71,3.937 -29.16,5.515 -10.25,0.79 -20.5,2.36 -30.74,2.36 -11.04,0.789 -21.28,0.789 -32.31,-0.789 -11.04,-0.781 -22.07,-2.36 -32.32,-3.938 -11.82,-1.578 -22.85,-3.937 -33.88,-6.304 -11.04,-2.368 -22.86,-5.516 -33.89,-8.672 -11.04,-3.938 -22.86,-7.875 -33.89,-11.821 -11.04,-3.937 -22.07,-7.882 -33.89,-12.609 -11.04,-4.727 -22.07,-8.672 -33.89,-13.398 -11.03,-4.727 -22.07,-9.454 -33.1,-14.977 -6.31,-3.148 -13.4,-6.305 -19.7,-9.453 1.57,0 3.15,0 3.94,0 14.18,-1.578 28.37,-3.156 42.55,-4.727 12.61,-2.367 26.01,-4.734 38.62,-7.882 11.83,-3.157 23.65,-6.305 35.47,-11.04 10.24,-4.726 20.49,-9.453 29.94,-15.757 8.68,-5.516 17.34,-11.039 25.22,-17.344 7.1,-6.305 14.19,-13.399 19.71,-21.274 5.51,-7.093 10.24,-14.976 14.18,-22.855 3.95,-8.676 7.1,-17.34 8.67,-26.008 1.58,-9.457 2.37,-18.125 1.58,-27.586 -0.79,-9.457 -3.15,-18.125 -6.3,-26.797 -3.95,-9.453 -8.68,-17.336 -14.19,-25.218 -5.52,-7.883 -11.82,-14.969 -18.92,-22.063 -7.09,-6.305 -14.97,-13.398 -22.85,-18.922 -8.67,-6.304 -17.34,-11.82 -26.8,-16.547 -9.46,-4.726 -19.7,-9.461 -29.95,-13.398 -10.24,-3.148 -20.49,-6.305 -31.52,-8.672 -11.03,-2.359 -22.07,-4.726 -33.1,-5.516 -11.03,-1.578 -22.07,-2.359 -33.1,-3.148 -11.04,0 -22.07,-0.789 -33.1,0 -10.25,0.789 -21.28,0.789 -31.53,2.359 -10.24,0.789 -20.49,1.579 -30.73,2.368 -9.46,0.789 -19.71,2.367 -29.16,3.937 -7.89,0.789 -16.55,3.156 -24.43,5.524 -7.1,1.57 -14.19,3.937 -21.28,6.304 -6.31,2.36 -12.61,3.938 -18.13,6.305 -5.52,2.359 -11.03,4.726 -15.76,7.094 -4.73,2.359 -8.67,3.937 -13.4,5.515 -3.15,1.571 -7.09,3.149 -10.25,4.727 -1.57,0.789 -3.15,1.578 -4.73,2.367 l 2.37,5.516 c 1.58,-0.789 3.15,-1.578 4.73,-2.368 3.94,-1.578 7.09,-2.367 10.24,-3.148 4.73,-2.367 8.67,-3.156 13.4,-4.734 5.52,-0.789 11.03,-1.571 16.55,-3.149 6.31,-1.578 12.61,-3.156 18.92,-3.945 7.09,-1.57 13.4,-3.149 20.49,-3.938 8.67,-0.789 16.55,-1.578 24.43,-2.367 9.46,-1.57 18.12,-1.57 27.58,-2.359 10.25,-0.789 19.71,-0.789 29.95,-0.789 10.25,0 20.49,0 30.74,0.789 10.24,0.789 20.49,1.57 30.73,3.148 10.25,1.578 19.71,3.946 29.95,6.305 9.46,2.367 18.92,5.516 28.37,8.672 8.67,3.937 17.34,7.883 26.01,11.82 7.88,4.727 15.76,9.461 22.86,14.188 7.88,4.726 14.18,10.242 21.28,14.976 5.51,5.516 11.82,10.242 16.55,16.547 4.72,4.727 9.46,10.25 13.4,15.766 3.15,4.726 5.51,10.242 7.88,14.972 1.57,4.731 2.36,8.668 2.36,13.395 0.79,3.945 0,8.672 -0.79,12.613 -1.57,4.727 -3.15,9.457 -4.73,13.399 -3.15,5.515 -6.3,10.242 -9.45,14.968 -3.95,5.52 -8.67,10.25 -12.61,14.977 -5.52,4.726 -11.83,9.461 -17.34,14.187 -7.88,4.727 -15.76,9.454 -23.65,12.61 -9.45,4.726 -18.91,8.672 -28.37,12.609 -11.03,4.727 -22.06,7.883 -33.89,10.242 -12.61,3.157 -25.22,4.735 -38.61,7.094 -14.19,1.578 -28.38,3.156 -42.56,3.945 -6.31,0.789 -13.4,0.789 -19.7,1.571 -3.95,-2.36 -7.89,-4.727 -11.83,-6.305 -9.46,-5.516 -18.91,-11.82 -29.16,-17.336 -9.46,-5.516 -18.91,-11.031 -29.16,-17.336 -9.46,-5.515 -18.91,-11.82 -28.37,-17.34 -10.25,-6.308 -19.7,-12.609 -29.16,-18.125 -9.46,-6.308 -19.7,-12.609 -29.16,-18.125 -9.46,-6.308 -19.7,-12.609 -29.16,-18.125 -9.46,-6.308 -19.7,-11.828 -29.16,-18.132 -10.25,-6.305 -20.49,-11.821 -30.74,-17.336 -10.24,-5.516 -20.49,-11.032 -30.73,-17.336 -10.25,-5.516 -20.5,-11.039 -30.74,-16.555 -11.03,-6.305 -22.07,-11.82 -32.31,-17.336 -2.37,-1.578 -4.73,-2.367 -7.09,-3.945 8.66,-5.516 18.12,-11.032 27.58,-15.758 11.03,-7.094 22.06,-12.609 33.1,-18.914 11.03,-5.516 22.07,-11.039 33.89,-16.555 11.03,-5.515 22.07,-10.242 33.89,-14.969 11.03,-4.734 22.85,-9.461 33.89,-13.398 11.82,-4.734 23.64,-7.883 35.46,-11.828 11.03,-3.149 22.86,-6.305 34.68,-9.453 11.82,-2.367 23.64,-5.516 35.46,-7.883 12.61,-3.156 24.44,-5.516 37.05,-7.094 12.61,-1.578 24.43,-3.937 37.04,-4.726 13.39,-1.575 26,-2.368 39.4,-3.153 13.4,-0.793 26.8,-0.793 40.2,-1.574 13.39,0 26,0 39.4,0.781 13.4,0 26.8,0.793 40.19,2.371 13.4,1.575 26.8,3.938 40.2,6.301 6.3,0.789 12.61,2.367 19.7,3.156 z m -777.86,53.586 c 5.51,1.578 10.24,2.368 14.97,3.946 10.24,2.359 20.49,5.515 30.73,9.453 11.04,3.156 22.07,7.094 32.32,11.039 11.03,3.937 22.07,9.453 33.1,14.187 11.03,4.727 21.28,11.032 32.31,15.758 2.36,1.578 4.73,3.156 7.09,3.945 -7.88,5.516 -15.76,10.243 -24.43,14.969 -11.03,7.094 -22.06,14.188 -33.89,21.281 -11.03,7.094 -22.85,14.188 -34.67,21.282 -11.83,7.879 -23.65,14.972 -35.47,22.062 0,0.789 -0.79,0.789 -1.58,1.578 -12.61,-5.515 -25.21,-11.82 -37.82,-17.336 -11.83,-5.515 -23.65,-11.035 -35.47,-17.343 -10.24,-5.516 -20.49,-11.821 -30.74,-18.125 -8.67,-5.516 -16.55,-11.032 -24.43,-16.547 -7.09,-5.516 -12.61,-10.25 -18.91,-15.766 -3.94,-4.726 -7.09,-9.453 -10.25,-14.187 -1.58,-3.149 -3.15,-7.094 -3.94,-11.032 0,-3.156 0.79,-6.304 1.58,-9.461 1.57,-3.148 3.15,-6.304 5.52,-8.664 3.15,-3.156 6.3,-5.515 10.24,-7.882 4.73,-2.368 9.46,-4.727 14.97,-6.305 6.31,-2.367 12.61,-3.156 18.92,-3.938 7.88,-1.578 14.97,-1.578 22.85,-1.578 8.67,0 16.55,0.789 25.22,1.578 8.67,0.782 18.13,2.36 27.59,3.938 4.72,0.789 9.46,2.367 14.19,3.148 z m 186.78,78.032 c 7.88,3.937 14.97,7.875 22.06,12.609 10.25,5.516 20.5,11.82 30.74,18.125 10.25,6.305 20.49,11.82 29.95,18.125 10.24,6.305 19.7,11.82 29.16,18.914 9.45,5.516 19.7,12.609 29.16,18.914 9.45,5.52 18.92,11.824 28.37,18.129 9.46,6.305 18.92,12.609 28.37,18.914 9.46,6.305 19.71,12.609 29.16,18.914 9.46,6.305 19.71,12.609 29.16,18.125 9.46,6.305 19.71,12.609 29.16,18.125 1.58,0.789 3.16,2.367 4.73,3.156 -14.18,-1.578 -28.37,-2.367 -42.55,-4.726 -17.34,-1.578 -35.47,-4.735 -53.6,-7.094 -17.33,-3.156 -35.46,-6.305 -53.59,-10.25 -18.13,-3.148 -36.25,-7.094 -53.59,-11.82 -18.13,-3.938 -36.26,-9.461 -54.38,-14.188 -17.34,-5.515 -34.68,-11.031 -52.81,-16.547 -16.55,-5.515 -33.88,-11.828 -50.43,-18.129 -15.76,-5.515 -30.74,-11.824 -45.71,-18.125 3.15,-2.363 7.09,-4.726 11.03,-7.093 11.03,-7.883 22.07,-16.547 33.1,-24.43 11.03,-7.883 22.07,-14.977 33.1,-22.859 10.25,-7.875 20.49,-14.969 31.52,-21.274 3.16,-2.367 5.52,-3.945 7.89,-5.515 v 0" />
<path
         id="path26"
         style="fill:#000;fill-opacity:1;fill-rule:nonzero;stroke:none"
         d="m 2854.65,747.02 c 1.58,-0.79 3.15,-0.79 4.73,-0.79 2.37,-0.785 4.73,-0.785 7.09,-1.578 3.16,-0.785 7.1,-1.578 10.25,-2.359 3.94,-0.789 7.09,-1.578 11.03,-3.156 3.94,-0.789 8.67,-2.364 12.61,-3.938 4.73,-1.574 9.46,-2.363 14.19,-4.73 4.73,-1.574 9.45,-3.942 14.18,-6.305 5.52,-2.363 10.25,-4.73 15.77,-6.305 5.51,-3.148 10.24,-6.304 15.76,-8.664 5.51,-2.371 11.03,-5.523 16.55,-8.675 5.51,-2.364 11.03,-6.301 16.55,-9.457 5.52,-3.938 11.82,-6.305 17.34,-9.454 6.3,-3.156 12.61,-6.304 18.12,-9.461 6.31,-4.726 11.82,-7.882 18.13,-11.031 6.31,-3.156 12.61,-7.094 18.91,-11.031 6.31,-3.945 12.62,-7.883 19.71,-11.828 6.3,-3.938 13.39,-7.875 19.7,-11.82 7.09,-3.938 14.19,-7.883 21.28,-11.821 7.09,-4.726 14.18,-8.672 21.28,-13.398 7.09,-4.727 14.19,-8.672 22.06,-13.399 7.1,-4.726 14.19,-9.453 22.07,-14.187 7.1,-4.727 14.98,-8.664 22.07,-13.399 7.88,-4.726 14.97,-9.453 22.86,-14.187 7.88,-4.727 15.76,-9.453 23.64,-14.18 7.88,-4.734 15.76,-9.461 24.43,-14.187 8.67,-4.727 17.34,-9.461 26.01,-14.188 8.67,-4.726 18.12,-9.461 26.8,-14.187 9.45,-4.727 18.91,-9.453 27.58,-13.399 10.24,-4.726 20.49,-9.453 30.74,-13.394 11.03,-4.731 22.06,-8.668 33.1,-12.614 11.82,-3.937 23.64,-7.878 34.67,-11.816 11.82,-3.941 24.43,-7.098 36.26,-10.25 11.82,-3.937 24.43,-7.086 37.04,-10.242 12.61,-3.152 26,-5.516 39.4,-7.883 13.4,-2.359 27.59,-4.727 41.77,-6.305 14.98,-2.359 29.16,-4.726 44.14,-5.515 15.76,-0.789 30.73,-2.367 45.71,-3.938 14.97,-1.578 30.73,-2.367 46.5,-3.156 15.76,-0.789 31.52,-0.789 47.28,-0.789 15.77,0 32.32,0.789 48.08,1.578 16.55,1.578 32.31,2.367 48.86,3.938 15.76,0.789 31.53,1.578 47.29,4.734 14.97,2.359 30.74,3.148 45.71,5.516 7.88,0.789 14.97,2.359 22.85,3.937 l -0.79,1.578 v 0 c -7.09,0 -14.97,-0.789 -22.06,-1.578 -15.76,-1.578 -30.74,-3.148 -46.5,-3.937 -15.76,0.789 -31.52,-0.79 -47.29,-1.579 -15.76,-0.789 -32.31,0 -48.07,0 -15.76,0 -32.31,0.789 -48.08,0.789 -15.76,0.79 -31.52,1.579 -46.5,2.368 -14.97,1.57 -30.73,3.148 -45.71,3.937 -14.97,2.363 -29.95,3.938 -44.13,6.305 -14.98,3.156 -29.16,5.515 -43.35,7.883 -13.39,2.359 -26.79,5.511 -40.19,9.453 -12.61,2.367 -26.01,5.523 -37.83,9.461 -12.61,3.148 -24.43,7.09 -36.25,11.031 -11.04,3.156 -22.86,7.094 -33.89,11.035 -11.82,3.938 -22.86,7.879 -33.89,12.61 -10.25,3.937 -20.49,8.664 -30.74,13.398 -9.45,4.727 -18.91,9.453 -28.37,14.18 -9.46,3.945 -18.13,9.461 -26.79,13.398 -8.68,4.734 -18.13,9.461 -26.8,14.188 -8.67,4.734 -16.55,9.461 -25.22,14.187 -7.88,4.727 -16.55,8.672 -24.43,13.399 -7.1,4.726 -14.98,9.46 -22.86,14.187 -7.88,4.727 -14.97,8.672 -22.85,13.398 -7.88,4.727 -14.98,9.454 -22.07,14.188 -7.88,4.727 -14.97,9.453 -22.86,13.398 -7.09,4.727 -14.97,8.664 -22.85,13.399 -7.09,3.937 -14.18,7.875 -21.28,12.609 -7.88,3.938 -14.97,7.883 -22.07,11.821 -7.09,3.937 -14.18,7.093 -21.28,11.031 -6.3,3.156 -13.39,6.304 -19.7,9.461 -7.09,3.148 -13.4,6.304 -19.7,10.242 -6.31,3.152 -12.61,6.305 -19.71,8.672 -6.3,3.148 -12.6,6.301 -18.91,9.453 -6.3,2.367 -12.61,5.523 -18.91,7.883 -5.52,2.367 -12.61,3.941 -18.13,6.304 -6.3,2.364 -12.61,3.942 -18.13,6.305 -6.3,1.578 -11.82,3.156 -17.33,4.731 -5.52,2.363 -11.04,3.941 -16.55,5.515 -4.73,2.363 -10.25,3.153 -15.77,4.727 -4.73,1.578 -8.67,3.156 -14.18,4.73 -3.94,1.578 -7.89,2.363 -12.61,3.942 -3.94,0.789 -7.89,2.363 -11.83,3.152 -3.15,0.789 -6.3,1.574 -10.24,2.363 -2.37,0 -4.73,0.789 -7.88,0.789 -1.58,0.789 -3.94,0.789 -5.52,0 v -7.093 0" />
<path
         id="path28"
         style="fill:#000;fill-opacity:1;fill-rule:nonzero;stroke:none"
         d="m 1100.31,489.305 c 9.46,-1.578 19.7,-3.938 29.95,-5.516 13.4,-2.363 26.79,-4.726 40.98,-6.305 13.4,-1.578 26.8,-3.152 40.98,-4.726 13.4,-0.789 27.59,-2.367 40.98,-2.367 13.4,-0.789 27.59,0 40.99,0 13.4,0.789 26.79,1.578 40.19,2.367 13.4,1.574 26.01,2.363 39.41,3.941 12.6,1.578 25.22,3.153 37.82,4.727 12.62,2.363 25.23,4.73 37.05,7.09 12.61,3.156 24.43,6.308 37.04,9.461 11.82,3.148 24.43,7.093 36.25,11.031 12.61,3.945 24.43,7.883 36.25,12.609 11.83,5.516 24.44,10.25 36.26,15.766 11.82,5.515 23.64,11.031 34.68,16.547 11.82,6.304 23.64,12.609 35.46,18.914 11.03,6.304 22.07,12.609 33.89,19.703 4.73,2.367 8.67,4.734 13.4,7.883 7.88,-3.938 15.76,-7.883 24.43,-11.032 11.03,-4.726 22.85,-9.46 34.68,-14.187 11.03,-4.727 22.85,-8.672 34.67,-12.609 11.04,-3.938 22.07,-7.883 33.1,-11.032 11.03,-3.156 22.07,-6.304 32.32,-8.672 11.03,-2.367 21.27,-4.726 31.52,-6.304 9.46,-1.578 19.7,-3.156 29.16,-3.938 8.67,-0.789 18.13,-0.789 26.8,-0.789 8.66,0.789 17.34,0.789 25.22,2.36 7.88,1.578 14.97,3.156 22.06,5.515 6.31,2.367 12.61,5.524 18.13,9.461 4.73,3.156 9.46,7.094 13.4,11.031 3.15,4.735 6.3,8.672 7.88,14.188 1.58,4.726 3.15,10.25 2.37,15.766 -0.79,6.304 -2.37,11.82 -5.52,17.335 -3.94,6.305 -7.88,11.821 -13.4,17.336 -6.31,5.524 -12.61,11.829 -19.71,16.555 -8.66,6.305 -17.33,12.609 -26,18.125 -10.25,6.305 -20.49,12.609 -31.53,18.125 -11.82,6.305 -23.64,12.613 -36.25,18.918 -8.67,3.938 -18.13,7.879 -27.58,12.613 6.3,3.149 11.82,7.09 17.33,10.239 11.83,7.093 24.44,14.191 36.26,21.281 12.61,6.305 25.22,13.398 37.83,18.914 13.39,6.305 26.79,12.609 40.19,18.125 13.4,5.516 27.59,11.039 41.77,15.766 14.19,5.515 28.37,9.453 42.56,14.187 14.97,3.938 30.74,7.094 45.71,9.453 15.76,3.156 31.52,5.516 48.07,7.094 16.55,1.578 33.1,0.789 50.44,0.789 17.34,-0.789 34.68,-2.367 52.02,-3.156 18.13,-1.571 35.47,-4.727 52.81,-9.453 18.12,-3.938 35.46,-9.461 52.01,-14.188 17.34,-5.516 34.68,-10.242 51.23,-16.547 15.76,-5.523 31.52,-12.609 47.28,-18.922 14.98,-6.304 29.16,-14.179 43.35,-21.273 13.4,-7.094 26.8,-14.977 39.4,-22.856 11.83,-7.882 23.65,-15.761 33.89,-24.429 10.25,-7.883 19.71,-16.555 29.16,-25.219 7.89,-7.883 14.98,-17.344 21.28,-26.008 0,-0.789 0,-0.789 0.79,-0.789 4.73,0.789 10.25,0.789 14.98,1.578 -0.79,2.36 -2.37,4.727 -3.95,7.094 -7.09,10.242 -14.97,18.914 -23.64,27.578 -9.46,9.461 -18.91,18.914 -29.16,26.797 -11.82,9.461 -22.86,18.125 -34.68,26.008 -13.39,8.668 -26.79,16.551 -40.19,24.433 -14.97,7.879 -29.16,14.973 -44.13,22.063 -15.77,7.094 -31.53,14.976 -48.08,21.281 -16.55,6.305 -33.1,13.399 -50.44,19.703 -18.12,5.516 -35.46,11.032 -53.59,15.766 -18.13,4.726 -36.25,8.664 -54.38,13.398 -18.13,3.149 -36.25,6.305 -54.38,7.875 -18.13,1.578 -35.47,2.368 -53.59,2.368 -17.34,0 -34.68,0.789 -52.02,-1.579 -16.55,-2.359 -33.1,-4.726 -49.65,-8.664 -16.55,-3.156 -32.31,-7.093 -48.07,-11.828 -14.98,-5.515 -29.95,-11.031 -44.14,-16.547 -14.18,-6.304 -28.37,-11.82 -42.55,-18.914 -13.4,-6.304 -26.8,-13.398 -40.2,-20.492 -12.61,-7.094 -25.22,-14.187 -37.83,-22.07 -11.82,-7.879 -23.64,-14.977 -36.25,-22.852 -1.58,-1.574 -3.94,-3.152 -6.31,-4.73 -3.15,1.578 -5.51,3.156 -8.66,3.941 -15.77,7.094 -32.32,13.399 -48.08,19.703 -17.34,6.305 -33.89,11.821 -51.23,18.125 -17.34,6.305 -35.46,11.821 -52.8,17.336 -18.13,5.524 -36.26,11.039 -54.38,16.555 -18.13,4.726 -36.26,9.453 -54.38,14.187 -18.13,3.938 -36.26,8.664 -54.38,11.821 -18.13,3.148 -36.25,6.304 -54.38,9.453 -18.13,2.367 -35.47,4.734 -53.59,6.312 -15.76,1.571 -32.32,3.149 -48.87,4.727 -9.45,5.516 -18.91,11.031 -29.16,15.758 -11.03,5.523 -21.27,11.039 -32.31,16.554 -11.82,4.727 -22.85,10.243 -34.67,14.188 -11.04,4.726 -22.86,9.453 -34.68,14.187 -11.82,3.938 -23.65,8.664 -35.47,12.61 -11.82,3.937 -23.64,7.875 -36.25,11.031 -11.82,3.148 -23.64,6.305 -36.25,9.461 -11.83,2.359 -23.65,4.727 -36.26,7.086 -11.82,1.578 -23.64,3.152 -35.46,4.73 -11.83,0.789 -23.65,1.575 -35.47,0.789 -11.03,0 -22.852,0 -33.888,-0.789 -11.035,-0.789 -22.066,-1.578 -33.101,-3.941 -10.242,-1.574 -21.278,-4.727 -31.524,-7.875 -10.246,-2.367 -19.703,-7.098 -29.16,-11.828 -8.668,-4.727 -17.34,-8.664 -26.008,-14.188 -8.668,-4.726 -16.55,-10.242 -22.855,-17.336 -7.094,-6.304 -14.188,-11.82 -20.488,-18.914 -6.305,-5.515 -12.614,-12.609 -18.129,-19.703 -4.731,-6.304 -9.457,-14.187 -14.188,-21.281 -3.937,-7.094 -7.09,-14.969 -9.457,-22.852 -3.152,-7.882 -4.726,-15.765 -6.304,-23.648 -1.575,-7.875 -2.364,-16.547 -2.364,-24.43 -0.789,-7.883 -0.789,-15.765 0,-23.64 0.789,-7.883 2.364,-15.762 3.942,-23.649 1.574,-7.879 4.726,-15.754 7.093,-22.851 3.938,-7.879 7.879,-15.762 11.821,-22.856 4.726,-7.883 10.246,-14.976 15.761,-22.062 5.52,-7.094 11.825,-14.188 18.914,-21.282 6.305,-7.093 13.399,-13.398 20.493,-20.492 7.093,-6.304 14.972,-13.398 22.855,-19.703 7.883,-6.305 16.551,-12.609 25.219,-18.914 9.457,-6.305 18.914,-11.82 27.586,-17.344 10.246,-6.304 20.488,-11.82 30.734,-16.547 10.246,-5.515 21.281,-10.242 32.313,-14.976 11.824,-4.727 22.855,-9.453 34.675,-13.395 11.82,-4.73 24.43,-8.668 36.25,-12.613 12.61,-3.937 25.22,-7.09 37.84,-10.242 3.15,-0.789 6.3,-1.578 10.24,-2.367 z m 13.4,16.554 c -6.31,1.571 -12.61,3.149 -18.92,4.727 -12.61,2.367 -24.43,6.305 -37.04,9.453 -11.82,3.945 -23.64,7.883 -35.46,11.828 -11.04,4.727 -22.07,8.664 -33.102,13.399 -11.036,4.726 -21.282,9.453 -31.528,14.968 -10.242,4.735 -19.699,9.461 -29.156,15.766 -9.461,4.727 -18.129,11.031 -26.797,16.547 -8.672,5.523 -16.551,11.828 -24.434,18.133 -7.878,5.515 -14.972,11.82 -22.066,18.914 -7.094,6.304 -13.398,12.609 -20.492,18.914 -6.305,6.305 -11.82,12.609 -17.336,19.703 -5.52,6.305 -11.035,13.398 -15.762,19.703 -3.941,6.305 -7.883,13.395 -11.035,19.703 -3.152,7.094 -5.516,14.184 -7.094,21.278 -2.363,6.304 -3.152,13.398 -3.941,21.277 -0.785,7.09 -1.574,14.183 -1.574,21.277 0,7.883 0.789,14.977 1.574,22.86 1.578,7.093 3.152,14.968 4.73,22.062 2.364,7.094 5.516,14.188 8.668,21.281 3.942,7.094 7.883,14.188 12.61,20.493 5.519,6.304 10.246,13.398 16.55,18.914 6.305,6.304 12.61,12.609 19.704,16.554 8.671,4.727 16.55,8.664 24.433,13.399 7.879,4.726 15.762,8.664 25.219,11.82 8.668,3.148 18.125,5.516 27.582,7.883 9.461,2.359 19.703,3.937 29.16,5.515 10.246,0.79 20.492,2.36 30.738,2.36 11.036,0.789 21.279,0.789 32.309,-0.789 11.04,-0.781 21.28,-2.36 32.32,-3.938 11.03,-1.578 22.85,-3.937 33.88,-6.304 11.04,-2.368 22.86,-5.516 33.89,-8.672 11.04,-3.938 22.07,-7.875 33.89,-11.821 11.04,-3.937 22.07,-7.882 33.89,-12.609 11.04,-4.727 22.07,-8.672 33.1,-13.398 11.82,-4.727 22.86,-9.454 33.89,-14.977 6.31,-3.148 13.4,-6.305 19.7,-9.453 -1.57,0 -3.15,0 -3.93,0 -14.19,-1.578 -28.38,-3.156 -42.56,-4.727 -13.4,-2.367 -26.01,-4.734 -39.41,-7.882 -11.03,-3.157 -22.86,-6.305 -34.68,-11.04 -10.24,-4.726 -20.49,-9.453 -29.94,-15.757 -8.68,-5.516 -17.34,-11.039 -25.22,-17.344 -7.1,-6.305 -14.19,-13.399 -19.71,-21.274 -5.52,-7.093 -10.24,-14.976 -14.18,-22.855 -3.95,-8.676 -7.1,-17.34 -8.67,-26.008 -1.58,-9.457 -3.15,-18.125 -1.58,-27.586 0.79,-9.457 2.37,-18.125 6.3,-26.797 3.95,-9.453 7.89,-17.336 14.19,-25.218 5.52,-7.883 11.82,-14.969 18.92,-22.063 7.09,-6.305 14.18,-13.398 22.85,-18.922 8.67,-6.304 17.34,-11.82 26.8,-16.547 9.46,-4.726 19.7,-9.461 29.16,-13.398 11.03,-3.148 21.28,-6.305 32.31,-8.672 11.03,-2.359 22.07,-4.726 33.1,-5.516 11.03,-1.578 22.07,-2.359 33.1,-3.148 11.04,0 22.07,-0.789 33.1,0 10.25,0.789 21.28,0.789 31.53,2.359 10.24,0.789 20.49,1.579 30.73,2.368 9.46,0.789 18.92,2.367 28.37,3.937 8.68,0.789 17.34,3.156 25.22,5.524 7.1,1.57 14.19,3.937 21.28,6.304 6.31,2.36 12.61,3.938 18.13,6.305 5.52,2.359 11.03,4.726 15.76,7.094 4.73,2.359 8.67,3.937 13.4,5.515 3.16,1.571 6.3,3.149 10.25,4.727 1.57,0.789 3.15,1.578 4.73,2.367 l -2.37,5.516 c -1.58,-0.789 -3.15,-1.578 -5.52,-2.368 -3.15,-1.578 -6.3,-2.367 -9.45,-3.148 -4.73,-2.367 -8.67,-3.156 -13.4,-4.734 -5.52,-0.789 -11.03,-1.571 -16.55,-3.149 -6.31,-1.578 -12.61,-3.156 -18.92,-3.945 -7.09,-1.57 -14.18,-3.149 -20.49,-3.938 -8.67,-0.789 -16.55,-1.578 -24.43,-2.367 -9.46,-1.57 -18.12,-1.57 -27.58,-2.359 -10.25,-0.789 -19.7,-0.789 -29.95,-0.789 -10.25,0 -20.49,0 -30.74,0.789 -10.24,0.789 -20.49,1.57 -30.73,3.148 -10.25,1.578 -19.71,3.946 -29.95,6.305 -9.46,2.367 -18.92,5.516 -28.37,8.672 -8.67,3.937 -17.34,7.883 -26.01,11.82 -7.88,4.727 -15.76,9.461 -22.86,14.188 -7.88,4.726 -14.18,10.242 -21.28,14.976 -5.51,5.516 -11.82,10.242 -16.55,16.547 -4.72,4.727 -9.46,10.25 -13.4,15.766 -3.15,4.726 -5.51,10.242 -7.88,14.972 -1.57,4.731 -2.36,8.668 -2.36,13.395 -0.79,3.945 0,8.672 0.79,12.613 0.79,4.727 3.15,9.457 4.73,13.399 2.36,5.515 6.3,10.242 9.45,14.968 3.95,5.52 7.89,10.25 12.61,14.977 5.52,4.726 11.04,9.461 17.34,14.187 7.89,4.727 14.98,9.454 23.65,12.61 9.45,4.726 18.91,8.672 28.37,12.609 11.03,4.727 22.07,7.883 33.89,10.242 12.61,3.157 25.22,4.735 38.61,7.094 14.19,1.578 28.38,3.156 42.56,3.945 6.31,0.789 12.61,0.789 19.7,1.571 3.95,-2.36 7.1,-4.727 11.04,-6.305 10.25,-5.516 19.7,-11.82 29.95,-17.336 9.46,-5.516 18.91,-11.031 28.37,-17.336 10.25,-5.515 19.7,-11.82 29.16,-17.34 9.46,-6.308 19.7,-12.609 29.16,-18.125 9.46,-6.308 18.91,-12.609 29.16,-18.125 9.46,-6.308 18.91,-12.609 29.16,-18.125 9.46,-6.308 19.7,-11.828 29.16,-18.132 10.25,-6.305 20.49,-11.821 30.74,-17.336 10.24,-5.516 19.7,-11.032 29.94,-17.336 11.04,-5.516 21.29,-11.039 31.53,-16.555 11.03,-6.305 21.28,-11.82 32.31,-17.336 2.37,-1.578 4.73,-2.367 7.09,-3.945 -8.66,-5.516 -18.12,-11.032 -27.58,-15.758 -11.03,-7.094 -22.06,-12.609 -33.1,-18.914 -11.03,-5.516 -22.07,-11.039 -33.89,-16.555 -11.03,-5.515 -22.86,-10.242 -33.89,-14.969 -11.82,-4.734 -22.85,-9.461 -34.67,-13.398 -11.04,-4.734 -22.86,-7.883 -34.68,-11.828 -11.03,-3.149 -22.86,-6.305 -34.68,-9.453 -11.82,-2.367 -23.64,-5.516 -35.46,-7.883 -12.61,-3.156 -24.44,-5.516 -37.05,-7.094 -12.61,-1.578 -25.21,-3.937 -37.82,-4.726 -12.61,-1.575 -26.01,-2.368 -38.62,-3.153 -13.4,-0.793 -26.8,-0.793 -40.2,-1.574 -13.39,0 -26.79,0 -39.4,0.781 -13.4,0 -26.8,0.793 -40.19,2.371 -13.4,1.575 -26.8,3.938 -40.2,6.301 -6.3,0.789 -12.61,2.367 -19.7,3.156 z m 777.86,53.586 c -5.51,1.578 -10.24,2.368 -14.97,3.946 -10.24,2.359 -20.49,5.515 -30.73,9.453 -11.04,3.156 -22.07,7.094 -32.32,11.039 -11.82,3.937 -22.07,9.453 -33.1,14.187 -11.03,4.727 -22.06,11.032 -32.31,15.758 -2.37,1.578 -4.73,3.156 -7.09,3.945 7.88,5.516 15.76,10.243 24.43,14.969 11.03,7.094 22.07,14.188 33.89,21.281 11.03,7.094 22.85,14.188 34.67,21.282 11.83,7.879 23.65,14.972 35.47,22.062 0,0.789 0.79,0.789 1.58,1.578 12.61,-5.515 25.21,-11.82 37.04,-17.336 12.61,-5.515 24.43,-11.035 36.25,-17.343 10.25,-5.516 20.49,-11.821 30.74,-18.125 8.67,-5.516 16.55,-11.032 24.43,-16.547 7.09,-5.516 12.61,-10.25 18.91,-15.766 3.94,-4.726 7.09,-9.453 10.25,-14.187 1.58,-3.149 3.15,-7.094 3.15,-11.032 0.79,-3.156 0,-6.304 -0.79,-9.461 -1.57,-3.148 -3.94,-6.304 -5.52,-8.664 -3.15,-3.156 -6.3,-5.515 -10.24,-7.882 -4.73,-2.368 -9.46,-4.727 -14.97,-6.305 -6.31,-2.367 -12.61,-3.156 -18.92,-3.938 -7.88,-1.578 -15.76,-1.578 -22.85,-1.578 -8.67,0 -16.55,0.789 -25.22,1.578 -9.46,0.782 -18.13,2.36 -27.59,3.938 -4.72,0.789 -9.46,2.367 -14.19,3.148 z M 1704,637.477 c -7.09,3.937 -14.18,7.875 -21.27,12.609 -10.25,5.516 -20.5,11.82 -30.74,18.125 -10.25,6.305 -20.49,11.82 -30.74,18.125 -9.45,6.305 -18.91,11.82 -28.37,18.914 -10.24,5.516 -19.7,12.609 -29.16,18.914 -9.45,5.52 -18.92,11.824 -28.37,18.129 -9.46,6.305 -18.92,12.609 -28.37,18.914 -9.46,6.305 -19.71,12.609 -29.16,18.914 -9.46,6.305 -19.71,12.609 -29.16,18.125 -9.46,6.305 -19.71,12.609 -29.16,18.125 -1.58,0.789 -3.16,2.367 -4.73,3.156 14.18,-1.578 28.37,-2.367 42.55,-4.726 17.34,-1.578 35.47,-4.735 52.81,-7.094 18.13,-3.156 36.25,-6.305 54.38,-10.25 18.13,-3.148 36.25,-7.094 53.59,-11.82 18.13,-3.938 36.26,-9.461 54.38,-14.188 17.34,-5.515 34.68,-11.031 52.81,-16.547 16.55,-5.515 33.88,-11.828 50.43,-18.129 14.98,-5.515 30.74,-11.824 45.71,-18.125 -3.94,-2.363 -7.09,-4.726 -11.03,-7.093 -11.03,-7.883 -22.06,-16.547 -33.1,-24.43 -11.03,-7.883 -22.07,-14.977 -33.1,-22.859 -10.25,-7.875 -20.49,-14.969 -31.52,-21.274 -3.16,-2.367 -5.52,-3.945 -8.68,-5.515 v 0" />
<path
         id="path30"
         style="fill:#000;fill-opacity:1;fill-rule:nonzero;stroke:none"
         d="m 2145.35,747.02 c -1.58,-0.79 -3.15,-0.79 -4.73,-0.79 -2.36,-0.785 -4.73,-0.785 -7.09,-1.578 -3.94,-0.785 -7.1,-1.578 -10.25,-2.359 -3.94,-0.789 -7.09,-1.578 -11.03,-3.156 -4.73,-0.789 -8.67,-2.364 -12.61,-3.938 -4.73,-1.574 -9.46,-2.363 -14.19,-4.73 -4.73,-1.574 -9.45,-3.942 -14.18,-6.305 -5.52,-2.363 -10.25,-4.73 -15.77,-6.305 -5.51,-3.148 -10.24,-6.304 -15.76,-8.664 -5.51,-2.371 -11.03,-5.523 -16.55,-8.675 -6.3,-2.364 -11.03,-6.301 -16.55,-9.457 -6.3,-3.938 -11.82,-6.305 -17.34,-9.454 -6.3,-3.156 -12.61,-6.304 -18.12,-9.461 -6.31,-4.726 -12.61,-7.882 -18.13,-11.031 -6.31,-3.156 -12.61,-7.094 -18.92,-11.031 -6.3,-3.945 -12.61,-7.883 -19.7,-11.828 -6.3,-3.938 -13.39,-7.875 -19.7,-11.82 -7.09,-3.938 -14.19,-7.883 -21.28,-11.821 -7.09,-4.726 -14.18,-8.672 -21.28,-13.398 -7.09,-4.727 -14.97,-8.672 -22.06,-13.399 -7.1,-4.726 -14.98,-9.453 -22.07,-14.187 -7.1,-4.727 -14.98,-8.664 -22.07,-13.399 -7.88,-4.726 -15.76,-9.453 -22.86,-14.187 -7.88,-4.727 -15.76,-9.453 -23.64,-14.18 -7.88,-4.734 -16.55,-9.461 -24.43,-14.187 -8.67,-4.727 -17.34,-9.461 -26.01,-14.188 -9.46,-4.726 -18.12,-9.461 -26.8,-14.187 -9.45,-4.727 -18.91,-9.453 -28.37,-13.399 -9.45,-4.726 -19.7,-9.453 -29.95,-13.394 -11.03,-4.731 -22.06,-8.668 -33.1,-12.614 -11.82,-3.937 -23.64,-7.878 -35.46,-11.816 -11.03,-3.941 -23.64,-7.098 -35.47,-10.25 -11.82,-3.937 -24.43,-7.086 -37.04,-10.242 -12.61,-3.152 -26,-5.516 -39.4,-7.883 -14.19,-2.359 -27.59,-4.727 -41.77,-6.305 -14.98,-2.359 -29.95,-4.726 -44.14,-5.515 -15.76,-0.789 -30.73,-2.367 -45.71,-3.938 -15.76,-1.578 -30.73,-2.367 -46.5,-3.156 -15.76,-0.789 -31.52,-0.789 -47.28,-0.789 -15.77,0 -32.32,0.789 -48.08,1.578 -16.55,1.578 -32.31,2.367 -48.86,3.938 -15.76,0.789 -31.53,1.578 -47.29,4.734 -15.76,2.359 -30.74,3.148 -45.71,5.516 -7.88,0.789 -14.971,2.359 -22.854,3.937 l 0.789,1.578 v 0 c 7.094,0 14.975,-0.789 22.065,-1.578 15.76,-1.578 30.74,-3.148 45.71,-3.937 16.55,0.789 32.32,-0.79 48.08,-1.579 15.76,-0.789 32.31,0 48.07,0 15.76,0 32.31,0.789 48.08,0.789 15.76,0.79 30.73,1.579 46.5,2.368 14.97,1.57 30.73,3.148 45.71,3.937 14.97,2.363 29.95,3.938 44.13,6.305 14.19,3.156 29.16,5.515 43.35,7.883 13.4,2.359 26.79,5.511 40.19,9.453 12.61,2.367 25.22,5.523 37.83,9.461 11.82,3.148 24.43,7.09 36.25,11.031 11.04,3.156 22.86,7.094 33.89,11.035 11.82,3.938 22.86,7.879 33.89,12.61 10.25,3.937 20.49,8.664 30.74,13.398 9.46,4.727 18.91,9.453 28.37,14.18 9.46,3.945 18.13,9.461 26.79,13.398 8.68,4.734 18.13,9.461 26.8,14.188 7.88,4.734 16.55,9.461 25.22,14.187 7.88,4.727 15.76,8.672 23.64,13.399 7.89,4.726 15.77,9.46 23.65,14.187 7.09,4.727 14.97,8.672 22.85,13.398 7.1,4.727 14.19,9.454 22.07,14.188 7.09,4.727 14.97,9.453 22.86,13.398 7.09,4.727 14.97,8.664 22.06,13.399 7.88,3.937 14.97,7.875 22.07,12.609 7.09,3.938 14.98,7.883 22.07,11.821 7.09,3.937 14.18,7.093 20.49,11.031 7.09,3.156 14.18,6.304 20.49,9.461 7.09,3.148 13.4,6.304 19.7,10.242 6.31,3.152 12.61,6.305 19.71,8.672 6.3,3.148 12.6,6.301 18.91,9.453 6.3,2.367 11.82,5.523 18.12,7.883 6.31,2.367 13.4,3.941 18.92,6.304 6.3,2.364 12.61,3.942 18.13,6.305 5.51,1.578 11.82,3.156 17.33,4.731 5.52,2.363 11.04,3.941 16.56,5.515 4.72,2.363 10.24,3.153 14.97,4.727 4.73,1.578 9.46,3.156 14.18,4.73 4.73,1.578 8.68,2.363 13.4,3.942 3.94,0.789 7.89,2.363 11.83,3.152 3.15,0.789 6.3,1.574 10.24,2.363 2.37,0 4.73,0.789 7.09,0.789 2.37,0.789 4.73,0.789 6.31,0 v -7.093 0" />
</g></g></svg>