<svg xmlns="http://www.w3.org/2000/svg" viewBox="0 140 1600 520"><g transform="matrix(1.3333333,0,0,-1.3333333,0,1858.6667)"><g transform="scale(0.1)"><path style="fill:#000;fill-rule:nonzero;stroke:none" d="m 2211.71,10016.7 c -189.63,-45.07 -377.72,65.2 -478.98,222.5 -54.7,85 -82.45,181 -83.3,281.9 -0.89,106.2 27.98,211.2 75.14,305.9 95.57,191.9 262.96,332.5 454.02,424 212.35,101.8 447.65,147.1 680.02,174.3 239.56,28 481.43,31.6 721.99,15.4 241.33,-16.2 481.25,-51 718.29,-98.8 236.49,-47.5 470.43,-107.3 702.38,-173.4 232.07,-66.1 462.23,-138.7 691.86,-212.8 229.57,-74.2 458.66,-149.8 688.77,-222.3 231.11,-72.7 463.26,-142.5 697.75,-203.6 231.76,-60.4 465.87,-112.9 702.46,-150.7 238.11,-38 478.99,-61.4 720.21,-63.4 222.83,-1.8 443.9,17.4 663.65,53.7 188.13,31 376.27,80.3 552.72,152.9 207.35,85.3 404.01,210.2 543.11,388.8 135.5,174 217.1,399.3 193.7,621.2 -6,56.7 -18.5,112.8 -38.3,166.4 -35.1,95.2 -97.9,180.3 -174.2,246.7 -164.2,142.8 -415.45,210.5 -614.75,99.1 -192.61,-107.6 -284.73,-376.5 -195.9,-579.5 20.38,-46.6 50.81,-89 90.85,-120.6 15.96,-12.5 36.01,-27.2 56.37,-31.2 9.38,-1.8 11.29,0.9 6.16,9.1 -5.59,8.9 -14.02,16.5 -20.83,24.5 -66.02,77.4 -97.08,172.1 -92.94,273.6 4.56,111.6 49.22,227 131.81,304.1 82.99,77.5 200.57,104.4 311.31,87.9 191.02,-28.6 374.02,-175.7 431.42,-362.5 57.5,-187.1 25.2,-386.3 -65.6,-557.7 -103.7,-195.7 -279.1,-340 -474.4,-439.1 -195.4,-99.1 -407.95,-154.7 -621.95,-196.6 -193.2,-37.8 -391.37,-55 -588.04,-58.2 -241.28,-4 -482.77,15.1 -721.47,49.6 -237.68,34.3 -472.87,84.5 -705.63,143.3 -232.03,58.6 -461.71,126.1 -690.19,197.2 -229.03,71.3 -456.92,146.1 -685.11,220 -227.86,73.8 -456.08,146.5 -686.03,213.6 -230.98,67.3 -463.75,128.9 -699.02,179.4 -235.21,50.6 -473.06,89.3 -712.74,110.9 -242.29,21.7 -486.19,25.1 -728.68,4.5 -234.01,-19.9 -471.2,-56.7 -692.31,-138.4 -209.55,-77.4 -405.69,-199.8 -539.68,-381.6 -119.63,-162.3 -190.11,-369.6 -157.82,-571.9 33.76,-211.5 192.2,-405.2 397.04,-471.82 81.41,-26.48 169.44,-30.8 252.43,-9.46 95.38,24.53 179.69,90.08 235.99,169.68 62.86,89 98.55,202.4 80.78,311.5 -7.93,48.7 -27,97.8 -59.65,135.4 -2.72,3.2 -15.78,19.2 -20.67,17.6 -5.53,-1.8 2.98,-17.2 4.45,-20.5 7.75,-17.8 14.98,-35.9 20.32,-54.6 56.33,-197.3 -80.01,-431.5 -276.81,-486"/><path style="fill:#000;fill-rule:nonzero;stroke:none" d="m 1584.45,10717.8 c -16.63,189.2 11.19,383.6 83.54,559.5 68.31,166 177.88,312.9 316.13,427.2 140.69,116.4 307.54,199.6 484.65,243.5 187.37,46.5 385.68,47.8 572.34,-3.1 182.66,-49.8 350.13,-140.9 502.55,-251.9 155.81,-113.5 296.89,-245.7 434.46,-380.2 137.93,-135 272.95,-272.9 417.21,-401.2 139.02,-123.7 285.3,-239.7 441.05,-341.6 152.57,-99.8 314.26,-186.7 484.79,-251.7 177.63,-67.8 364.54,-110.9 554.37,-123.7 190.95,-12.9 385.35,4.1 568.91,59.6 139.03,42 273.82,106 390.88,192.5 144.96,107.2 263.35,249.4 345.46,409.6 85.92,167.8 131.84,357.5 119.33,546.3 -10.78,162.7 -65.65,318.9 -162.09,450.5 -98.4,134.4 -233.87,235.2 -383.58,305.7 -165.98,78.1 -356.36,110.5 -538.82,94 -181.12,-16.4 -358.04,-85.4 -495.45,-205.8 -130.84,-114.6 -232.95,-284.8 -212.76,-464.3 10.06,-89.5 53.9,-167.4 120.99,-226.8 66.72,-59 154.46,-98.1 244.21,-99.6 37.79,-0.7 76.19,5.7 110.8,21.2 18.19,8.2 34.89,19.1 50.26,31.7 3.44,2.8 38.42,35.3 33.06,40.2 -2.81,2.6 -37.76,-24.9 -42.88,-28 -15.8,-9.5 -32.72,-17.1 -50.29,-22.6 -41.73,-13.2 -86.15,-14.7 -129.1,-7.3 -95,16.5 -184.97,74.2 -240.88,152.6 -117.23,164.4 -36.05,379.3 86.87,515 134.41,148.4 328.49,233.1 526.05,251.6 194.72,18.2 393.81,-22.9 567.06,-113.1 176.4,-91.9 325.24,-235.8 406.97,-418.6 76.38,-170.8 86.39,-366.3 45.94,-547.6 -43.89,-196.8 -145.98,-380.3 -284.76,-526 -115.89,-121.7 -259.32,-213 -415.11,-274.7 -198.78,-78.7 -415.2,-106.7 -628.06,-96 -210.32,10.5 -417.25,59.5 -612.22,138.4 -189.85,76.8 -368.2,180.5 -535.07,298.8 -171.29,121.5 -330.8,258.8 -482.44,403.8 -155.99,149.3 -305.48,305.3 -465.97,449.8 -156.94,141.3 -325.79,273 -516.3,366.1 -190.19,93 -399.14,142.3 -611.25,130.3 -206.72,-11.8 -410.74,-77.2 -586.71,-186.1 -167.9,-103.8 -310.35,-246.6 -407.31,-419.1 -102.64,-182.5 -152.54,-393.6 -150.71,-602.5 1.72,-196.5 49.25,-392.6 146.98,-563.6 22.88,-40 48.92,-79.2 79.62,-113.8 2.12,-2.4 9.27,-12.7 12.98,-13 3.37,-0.2 1.61,0 1.39,3.5 -0.37,5.9 -7.14,14.7 -9.91,19.7 -5.59,10 -11.31,19.9 -16.87,30 -44.37,80.1 -82.75,163.1 -111.38,250.2 -30.93,94 -50.38,192 -58.93,290.6 -9.31,106 4.54,-52.3 0,0"/><path style="fill:#000;fill-rule:nonzero;stroke:none" d="m 10068.4,11036.8 c 7.5,180 -48.5,365.1 -163.61,504.9 -118.49,143.9 -301.02,224.3 -482.58,250.4 -191.26,27.6 -388.24,-1.8 -569.4,-66.2 -177.4,-63 -337.94,-161.3 -484.39,-278.7 -148.11,-118.8 -281.77,-254.4 -411.22,-392.9 -132.83,-142.2 -261.96,-287.9 -400.53,-424.5 -138.74,-136.8 -285.4,-265.4 -441.28,-382.4 -84.47,-63.4 -171.67,-122.9 -261.38,-178.6 -161.77,-100.52 -334,-185.54 -512.63,-251.56 -129.09,-47.71 -261.26,-82.05 -395.97,-109.1 -112.19,-22.53 -228.37,-33.23 -342.5,-36.16 -105.31,-2.71 -209.99,2.2 -314.52,15.02 -154.76,18.98 -309.84,56.53 -453.8,117.08 -84.56,35.57 -166.81,74.88 -244.38,124.18 -76.21,48.43 -148.69,102.44 -215.98,162.74 -129.62,116.1 -240.51,253.9 -323.91,406.7 -86.73,158.9 -142.41,333.7 -158.31,514.3 -14.81,168.3 10.67,338.2 68.51,496.6 58.19,159.3 149.46,306.9 267.76,428.7 121.6,125.1 268.3,217.6 430.64,280.4 17.9,6.9 36.4,12.7 53.98,20.4 5.94,2.6 18.59,8 5.2,8.7 -17.05,0.8 -36.28,-4 -52.83,-7.7 -20.67,-4.6 -41.06,-9.9 -61.27,-16.3 -81.11,-25.4 -157.45,-63.4 -228.32,-110.2 -144.47,-95.4 -263.71,-228.4 -351.92,-376.8 -88.07,-148.1 -145.18,-313.7 -167.51,-484.6 -22.4,-171.3 -2.67,-347.8 48.12,-512.4 52.4,-169.9 138.2,-328.6 247.3,-468.6 108.85,-139.8 241.36,-262 389.78,-358.77 119.29,-77.78 247.22,-136.34 381.21,-183.29 142.17,-49.82 294.53,-79.07 444.66,-90.29 144.4,-10.79 288.75,-9.1 432.73,7.83 77.25,9.08 153.21,22.71 229.44,37.97 161.54,32.34 319.9,88.2 470.63,153.87 159.36,69.42 311.74,153.96 457.22,248.98 101.23,66.1 198.76,138.6 292.89,214.4 147.68,118.9 286.73,248.6 418.53,384.8 128.13,132.4 250.08,270.6 377.26,403.9 126.7,132.8 259.03,261.7 406.35,371.7 151.68,113.3 318.82,203.3 501.66,254.7 184.71,51.8 384.03,65.4 570.52,14.5 89.01,-24.4 175.12,-63.8 249.51,-118.7 69.88,-51.6 126.11,-119 167.74,-195 88.1,-160.9 114.1,-358 62.1,-534.7 -24.36,-82.9 -67.93,-158.8 -129.35,-219.8 -28.49,-28.2 -62.39,-48.1 -92.91,-73.5 -8.79,-7.3 -6.19,-8.9 4.23,-5.7 18.31,5.5 35.16,14.3 51.77,23.7 150.85,84.8 223.86,263.9 230.76,430 4.1,97.1 -2,-48 0,0"/></g></g></svg>
